<svg width="324" height="420" viewBox="0 0 324 420" fill="none" xmlns="http://www.w3.org/2000/svg">
<path d="M40 0H294.851C294.934 0 295 0.0664924 295 0.148515C295 8.35076 288.351 15 280.149 15H40V0Z" fill="#F69893"/>
<path d="M40 65H280.149C288.351 65 295 71.6492 295 79.8515C295 79.9335 294.934 80 294.851 80H40V65Z" fill="#F69893"/>
<circle cx="40" cy="40" r="40" fill="#F69893"/>
<circle cx="40" cy="40" r="25" fill="#FCA5A5"/>
<path fill-rule="evenodd" clip-rule="evenodd" d="M280 15H39.8334V65H280C280 65 275.161 53.8071 275.161 40C275.161 26.1929 280 15 280 15Z" fill="#FCA5A5"/>
<path d="M40 340H294.851C294.934 340 295 340.066 295 340.149C295 348.351 288.351 355 280.149 355H40V340Z" fill="#F69893"/>
<path d="M40 405H280.149C288.351 405 295 411.649 295 419.851C295 419.934 294.934 420 294.851 420H40V405Z" fill="#F69893"/>
<circle cx="40" cy="380" r="40" fill="#F69893"/>
<circle cx="40" cy="380" r="25" fill="#FCA5A5"/>
<path fill-rule="evenodd" clip-rule="evenodd" d="M280 355H39.8334V405H280C280 405 275.161 393.807 275.161 380C275.161 366.193 280 355 280 355Z" fill="#FCA5A5"/>
<circle cx="259" cy="145" r="65" fill="#70C4FD"/>
<circle cx="259" cy="145" r="50" fill="#93C5FD"/>
<path fill-rule="evenodd" clip-rule="evenodd" d="M16 195C16 195 25.5294 172.614 25.5294 145C25.5294 117.386 16 95 16 95H259V195L16 195Z" fill="#93C5FD"/>
<path d="M0 80.1485C0 80.0665 0.0664924 80 0.148515 80H258.732V95H14.8515C6.64925 95 0 88.3508 0 80.1485Z" fill="#70C4FD"/>
<path d="M0 209.851C0 201.649 6.64924 195 14.8515 195H258.732V210H0.148526C0.0665035 210 0 209.934 0 209.851Z" fill="#70C4FD"/>
<circle cx="259" cy="275" r="65" fill="#19EBAC"/>
<circle cx="259" cy="275" r="50" fill="#6EE7B7"/>
<path fill-rule="evenodd" clip-rule="evenodd" d="M16 325C16 325 25.5294 302.614 25.5294 275C25.5294 247.386 16 225 16 225H259V325L16 325Z" fill="#6EE7B7"/>
<path d="M0 210.149C0 210.066 0.0664924 210 0.148515 210H258.732V225H14.8515C6.64925 225 0 218.351 0 210.149Z" fill="#19EBAC"/>
<path d="M0 339.851C0 331.649 6.64924 325 14.8515 325H258.732V340H0.148526C0.0665035 340 0 339.934 0 339.851Z" fill="#19EBAC"/>
</svg>
