<svg width="50" height="50" viewBox="0 0 50 50" fill="none" xmlns="http://www.w3.org/2000/svg">
<path d="M21.875 25.9479V31.6292H25C26.725 31.6292 28.125 30.3583 28.125 28.7875C28.125 27.2187 26.725 25.9479 25 25.9479H21.875ZM29.1958 23.3646C31.0687 24.5687 32.2916 26.55 32.2916 28.7896C32.2916 32.4479 29.0271 35.4167 25 35.4167H17.7083V16.4792C17.7083 15.4292 18.6416 14.5833 19.7916 14.5833H23.9583C27.4104 14.5833 30.2083 17.1271 30.2083 20.2646C30.2083 21.4104 29.8354 22.4729 29.1958 23.3667V23.3646ZM21.875 18.3729V22.1604H23.9583C25.1083 22.1604 26.0416 21.3125 26.0416 20.2667C26.0416 19.2208 25.1083 18.3729 23.9583 18.3729H21.875Z" fill="black"/>
</svg>
