<svg width="50" height="50" viewBox="0 0 50 50" fill="none" xmlns="http://www.w3.org/2000/svg">
<path d="M29.2884 11.1116C30.1985 11.4617 30.6657 12.5204 30.335 13.4795L21.9557 37.7843C21.6232 38.7434 20.6204 39.2369 19.7121 38.8886C18.8021 38.5386 18.3348 37.4798 18.6656 36.5208L27.0449 12.2159C27.3774 11.2569 28.3801 10.7634 29.2884 11.1116ZM11.2243 25.4481L17.4125 31.9829C18.095 32.7039 18.095 33.8729 17.4125 34.594C17.2547 34.7646 17.0634 34.9007 16.8504 34.9938C16.6375 35.0869 16.4076 35.135 16.1752 35.135C15.9428 35.135 15.7129 35.0869 15.5 34.9938C15.2871 34.9007 15.0957 34.7646 14.9379 34.594L7.51242 26.7554C7.18302 26.4001 7 25.9335 7 25.449C7 24.9645 7.18302 24.4979 7.51242 24.1426L14.9379 16.3023C15.0957 16.1317 15.2871 15.9956 15.5 15.9025C15.7129 15.8094 15.9428 15.7613 16.1752 15.7613C16.4076 15.7613 16.6375 15.8094 16.8504 15.9025C17.0634 15.9956 17.2547 16.1317 17.4125 16.3023C18.095 17.0251 18.095 18.1959 17.4125 18.9169L11.2243 25.4481ZM37.7762 25.4481L31.588 18.9169C31.2586 18.5616 31.0756 18.095 31.0756 17.6105C31.0756 17.126 31.2586 16.6594 31.588 16.3041C31.7458 16.1335 31.9372 15.9973 32.1501 15.9042C32.363 15.8111 32.5929 15.763 32.8253 15.763C33.0577 15.763 33.2876 15.8111 33.5005 15.9042C33.7134 15.9973 33.9048 16.1335 34.0626 16.3041L41.4881 24.1426C42.1706 24.8636 42.1706 26.0327 41.4881 26.7554L34.0626 34.5922C33.9048 34.7628 33.7134 34.899 33.5005 34.9921C33.2876 35.0852 33.0577 35.1332 32.8253 35.1332C32.5929 35.1332 32.363 35.0852 32.1501 34.9921C31.9372 34.899 31.7458 34.7628 31.588 34.5922C31.2591 34.237 31.0764 33.7708 31.0764 33.2867C31.0764 32.8026 31.2591 32.3363 31.588 31.9811L37.7762 25.4481Z" fill="black"/>
</svg>
