<svg width="50" height="50" viewBox="0 0 50 50" fill="none" xmlns="http://www.w3.org/2000/svg">
<path d="M17.2116 24.9592L7.59321 15.3408C7.40762 15.1615 7.25959 14.9471 7.15776 14.7101C7.05592 14.473 7.00232 14.218 7.00007 13.96C6.99783 13.702 7.047 13.4461 7.1447 13.2073C7.2424 12.9685 7.38668 12.7516 7.56913 12.5691C7.75157 12.3867 7.96852 12.2424 8.20733 12.1447C8.44613 12.047 8.702 11.9978 8.96 12.0001C9.21801 12.0023 9.47298 12.0559 9.71005 12.1578C9.94712 12.2596 10.1615 12.4076 10.3408 12.5932L21.333 23.5854C21.6973 23.9498 21.9019 24.444 21.9019 24.9592C21.9019 25.4745 21.6973 25.9686 21.333 26.333L10.3408 37.3252C10.1615 37.5108 9.94712 37.6588 9.71005 37.7607C9.47298 37.8625 9.21801 37.9161 8.96 37.9183C8.702 37.9206 8.44613 37.8714 8.20733 37.7737C7.96852 37.676 7.75157 37.5317 7.56913 37.3493C7.38668 37.1669 7.2424 36.9499 7.1447 36.7111C7.047 36.4723 6.99783 36.2164 7.00007 35.9584C7.00232 35.7004 7.05592 35.4454 7.15776 35.2084C7.25959 34.9713 7.40762 34.7569 7.59321 34.5776L17.2116 24.9592ZM24.5119 33.3982H40.0569C40.5722 33.3982 41.0665 33.6029 41.4309 33.9673C41.7953 34.3317 42 34.8259 42 35.3413C42 35.8566 41.7953 36.3509 41.4309 36.7153C41.0665 37.0797 40.5722 37.2844 40.0569 37.2844H24.5119C23.9966 37.2844 23.5024 37.0797 23.1379 36.7153C22.7735 36.3509 22.5688 35.8566 22.5688 35.3413C22.5688 34.8259 22.7735 34.3317 23.1379 33.9673C23.5024 33.6029 23.9966 33.3982 24.5119 33.3982Z" fill="black"/>
</svg>
