<svg width="50" height="50" viewBox="0 0 50 50" fill="none" xmlns="http://www.w3.org/2000/svg">
<path d="M14.5833 22.9167H22.9167V16.6667C22.9167 16.1141 23.1361 15.5842 23.5269 15.1935C23.9176 14.8028 24.4475 14.5833 25 14.5833C25.5525 14.5833 26.0824 14.8028 26.4731 15.1935C26.8638 15.5842 27.0833 16.1141 27.0833 16.6667V33.3333C27.0833 33.8859 26.8638 34.4158 26.4731 34.8065C26.0824 35.1972 25.5525 35.4167 25 35.4167C24.4475 35.4167 23.9176 35.1972 23.5269 34.8065C23.1361 34.4158 22.9167 33.8859 22.9167 33.3333V27.0833H14.5833V33.3333C14.5833 33.8859 14.3638 34.4158 13.9731 34.8065C13.5824 35.1972 13.0525 35.4167 12.5 35.4167C11.9475 35.4167 11.4176 35.1972 11.0269 34.8065C10.6362 34.4158 10.4167 33.8859 10.4167 33.3333V16.6667C10.4167 16.1141 10.6362 15.5842 11.0269 15.1935C11.4176 14.8028 11.9475 14.5833 12.5 14.5833C13.0525 14.5833 13.5824 14.8028 13.9731 15.1935C14.3638 15.5842 14.5833 16.1141 14.5833 16.6667V22.9167ZM34.4167 24.5396H31.25V20.8333H38.25V35.4167H34.4167V24.5396Z" fill="black"/>
</svg>
