<svg width="50" height="50" viewBox="0 0 50 50" fill="none" xmlns="http://www.w3.org/2000/svg">
<path d="M13.5417 22.9167H21.875V16.6667C21.875 16.1141 22.0945 15.5842 22.4852 15.1935C22.8759 14.8028 23.4058 14.5833 23.9583 14.5833C24.5109 14.5833 25.0408 14.8028 25.4315 15.1935C25.8222 15.5842 26.0417 16.1141 26.0417 16.6667V33.3333C26.0417 33.8859 25.8222 34.4158 25.4315 34.8065C25.0408 35.1972 24.5109 35.4167 23.9583 35.4167C23.4058 35.4167 22.8759 35.1972 22.4852 34.8065C22.0945 34.4158 21.875 33.8859 21.875 33.3333V27.0833H13.5417V33.3333C13.5417 33.8859 13.3222 34.4158 12.9315 34.8065C12.5408 35.1972 12.0109 35.4167 11.4583 35.4167C10.9058 35.4167 10.3759 35.1972 9.98519 34.8065C9.59449 34.4158 9.375 33.8859 9.375 33.3333V16.6667C9.375 16.1141 9.59449 15.5842 9.98519 15.1935C10.3759 14.8028 10.9058 14.5833 11.4583 14.5833C12.0109 14.5833 12.5408 14.8028 12.9315 15.1935C13.3222 15.5842 13.5417 16.1141 13.5417 16.6667V22.9167ZM40.375 31.9833V35.4167H30.2083V33.3042L30.4167 32.7917L34.1354 28.8062C35.0312 27.9 35.7875 27.2021 36.0583 26.7C36.3167 26.2208 36.4375 25.8104 36.4375 25.4771C36.4375 25.1854 36.3542 24.9729 36.1729 24.7958C36.0756 24.704 35.9605 24.6332 35.8347 24.5877C35.709 24.5421 35.5752 24.5229 35.4417 24.5312C35.3015 24.5263 35.162 24.5534 35.0339 24.6104C34.9057 24.6674 34.7922 24.7529 34.7021 24.8604C34.4833 25.1042 34.3583 25.4604 34.3417 25.9542L34.3167 26.6583H30.5167L30.55 25.8958C30.6208 24.3646 31.1167 23.125 32.0458 22.2083C32.975 21.2917 34.1708 20.8333 35.5937 20.8333C36.4771 20.8333 37.2708 21.0229 37.9688 21.4062C38.6709 21.797 39.2519 22.3737 39.6479 23.0729C40.0604 23.7875 40.2729 24.5312 40.2729 25.2875C40.2729 26.1542 39.7937 27.0562 39.3229 28.0104C38.8604 28.9479 38.2104 29.8354 37.1063 31.25L36.8646 31.5062L36.3354 31.9833H40.3729H40.375Z" fill="black"/>
</svg>
