<svg width="50" height="50" viewBox="0 0 50 50" fill="none" xmlns="http://www.w3.org/2000/svg">
<path d="M13.5417 21.875H21.875V15.625C21.875 15.0725 22.0945 14.5426 22.4852 14.1519C22.8759 13.7612 23.4058 13.5417 23.9583 13.5417C24.5109 13.5417 25.0408 13.7612 25.4315 14.1519C25.8222 14.5426 26.0417 15.0725 26.0417 15.625V32.2917C26.0417 32.8442 25.8222 33.3741 25.4315 33.7648C25.0408 34.1555 24.5109 34.375 23.9583 34.375C23.4058 34.375 22.8759 34.1555 22.4852 33.7648C22.0945 33.3741 21.875 32.8442 21.875 32.2917V26.0417H13.5417V32.2917C13.5417 32.8442 13.3222 33.3741 12.9315 33.7648C12.5408 34.1555 12.0109 34.375 11.4583 34.375C10.9058 34.375 10.3759 34.1555 9.98519 33.7648C9.59449 33.3741 9.375 32.8442 9.375 32.2917V15.625C9.375 15.0725 9.59449 14.5426 9.98519 14.1519C10.3759 13.7612 10.9058 13.5417 11.4583 13.5417C12.0109 13.5417 12.5408 13.7612 12.9315 14.1519C13.3222 14.5426 13.5417 15.0725 13.5417 15.625V21.875ZM39.4854 27.1104L39.575 27.225C40.1042 27.9208 40.3667 28.7417 40.3667 29.6667C40.3667 30.9938 39.8687 32.1396 38.8937 33.0583C37.9229 33.9729 36.6854 34.4292 35.2208 34.4292C33.8229 34.4292 32.6479 33.9938 31.7396 33.1229C30.8312 32.2521 30.3375 31.075 30.2542 29.6313L30.2083 28.8604H33.9646L34.0625 29.475C34.1417 29.9708 34.2958 30.3021 34.5104 30.4958C34.7188 30.6854 34.9896 30.7813 35.3479 30.7813C35.5093 30.7892 35.6707 30.764 35.8219 30.707C35.9732 30.65 36.1111 30.5625 36.2271 30.45C36.335 30.349 36.4201 30.2261 36.4769 30.0896C36.5336 29.9531 36.5607 29.8061 36.5563 29.6583C36.5563 29.3188 36.4167 29.0438 36.0896 28.7854C35.7354 28.5063 35.1771 28.3479 34.3917 28.3375L33.6729 28.3292V25.8917L34.3917 25.8833C35.1771 25.875 35.7375 25.7167 36.0896 25.4354C36.4167 25.1771 36.5563 24.9042 36.5563 24.5646C36.561 24.4165 36.5341 24.2691 36.4773 24.1322C36.4206 23.9953 36.3352 23.8721 36.2271 23.7708C36.1111 23.6583 35.9732 23.5709 35.8219 23.5139C35.6707 23.4569 35.5093 23.4316 35.3479 23.4396C35.0421 23.4234 34.7419 23.5265 34.5104 23.7271C34.2958 23.9188 34.1417 24.25 34.0625 24.7458L33.9646 25.3604H30.2083L30.2542 24.5896C30.3375 23.1458 30.8312 21.9688 31.7396 21.1C32.6479 20.2271 33.8229 19.7917 35.2188 19.7917C36.6854 19.7917 37.9229 20.25 38.8937 21.1625C39.8687 22.0813 40.3687 23.2271 40.3687 24.5563C40.3845 25.4851 40.0717 26.3897 39.4854 27.1104Z" fill="black"/>
</svg>
