<svg width="50" height="50" viewBox="0 0 50 50" fill="none" xmlns="http://www.w3.org/2000/svg">
<path d="M13.5417 22.9167H21.875V16.6667C21.875 16.1141 22.0945 15.5842 22.4852 15.1935C22.8759 14.8028 23.4058 14.5833 23.9583 14.5833C24.5109 14.5833 25.0408 14.8028 25.4315 15.1935C25.8222 15.5842 26.0417 16.1141 26.0417 16.6667V33.3333C26.0417 33.8859 25.8222 34.4158 25.4315 34.8065C25.0408 35.1972 24.5109 35.4167 23.9583 35.4167C23.4058 35.4167 22.8759 35.1972 22.4852 34.8065C22.0945 34.4158 21.875 33.8859 21.875 33.3333V27.0833H13.5417V33.3333C13.5417 33.8859 13.3222 34.4158 12.9315 34.8065C12.5408 35.1972 12.0109 35.4167 11.4583 35.4167C10.9058 35.4167 10.3759 35.1972 9.98519 34.8065C9.59449 34.4158 9.375 33.8859 9.375 33.3333V16.6667C9.375 16.1141 9.59449 15.5842 9.98519 15.1935C10.3759 14.8028 10.9058 14.5833 11.4583 14.5833C12.0109 14.5833 12.5408 14.8028 12.9315 15.1935C13.3222 15.5842 13.5417 16.1141 13.5417 16.6667V22.9167ZM35.7 32.7917H30.2083V29.7958L30.3333 29.3833L35.9875 20.8208H39.5021V29.0542H40.6229V32.7917H39.5021V35.4167H35.7V32.7917ZM36.0208 30.1187V26.6125L33.7292 30.1187H36.0208Z" fill="black"/>
</svg>
