<svg width="50" height="50" viewBox="0 0 50 50" fill="none" xmlns="http://www.w3.org/2000/svg">
<path d="M12.5 21.875H20.8333V15.625C20.8333 15.0725 21.0528 14.5426 21.4435 14.1519C21.8342 13.7612 22.3641 13.5417 22.9167 13.5417C23.4692 13.5417 23.9991 13.7612 24.3898 14.1519C24.7805 14.5426 25 15.0725 25 15.625V32.2917C25 32.8442 24.7805 33.3741 24.3898 33.7648C23.9991 34.1555 23.4692 34.375 22.9167 34.375C22.3641 34.375 21.8342 34.1555 21.4435 33.7648C21.0528 33.3741 20.8333 32.8442 20.8333 32.2917V26.0417H12.5V32.2917C12.5 32.8442 12.2805 33.3741 11.8898 33.7648C11.4991 34.1555 10.9692 34.375 10.4167 34.375C9.86413 34.375 9.33422 34.1555 8.94352 33.7648C8.55282 33.3741 8.33333 32.8442 8.33333 32.2917V15.625C8.33333 15.0725 8.55282 14.5426 8.94352 14.1519C9.33422 13.7612 9.86413 13.5417 10.4167 13.5417C10.9692 13.5417 11.4991 13.7612 11.8898 14.1519C12.2805 14.5426 12.5 15.0725 12.5 15.625V21.875ZM29.1729 30.8688H34.7562C35.5604 30.8688 36.2125 30.2708 36.2125 29.5313C36.2125 28.7917 35.5604 28.1938 34.7583 28.1938H29.1875L29.1917 27.6854L29.1667 19.7917H39.7625V23.725H33.2125L33.2417 25.0104H35.5625C38.3854 25.0104 40.7062 27.0604 40.8187 29.6563C40.9271 32.1771 38.7937 34.3042 36.0521 34.4063L35.8542 34.4083L29.1667 34.3667V31.7292L29.1729 30.8667V30.8688Z" fill="black"/>
</svg>
