<svg width="50" height="50" viewBox="0 0 50 50" fill="none" xmlns="http://www.w3.org/2000/svg">
<path d="M13.5417 22.9167H21.875V16.6667C21.875 16.1141 22.0945 15.5842 22.4852 15.1935C22.8759 14.8028 23.4058 14.5833 23.9583 14.5833C24.5109 14.5833 25.0408 14.8028 25.4315 15.1935C25.8222 15.5842 26.0417 16.1141 26.0417 16.6667V33.3333C26.0417 33.8859 25.8222 34.4158 25.4315 34.8065C25.0408 35.1972 24.5109 35.4167 23.9583 35.4167C23.4058 35.4167 22.8759 35.1972 22.4852 34.8065C22.0945 34.4158 21.875 33.8859 21.875 33.3333V27.0833H13.5417V33.3333C13.5417 33.8859 13.3222 34.4158 12.9315 34.8065C12.5408 35.1972 12.0109 35.4167 11.4583 35.4167C10.9058 35.4167 10.3759 35.1972 9.98519 34.8065C9.59449 34.4158 9.375 33.8859 9.375 33.3333V16.6667C9.375 16.1141 9.59449 15.5842 9.98519 15.1935C10.3759 14.8028 10.9058 14.5833 11.4583 14.5833C12.0109 14.5833 12.5408 14.8028 12.9315 15.1935C13.3222 15.5842 13.5417 16.1141 13.5417 16.6667V22.9167ZM38.4354 27.2021C39.3312 28.1187 39.7917 29.2833 39.7917 30.6187C39.7917 31.9292 39.3167 33.0771 38.3958 33.9937C37.475 34.9042 36.3333 35.375 35.0354 35.375C34.3938 35.3868 33.7568 35.2645 33.1653 35.0159C32.5737 34.7672 32.0406 34.3978 31.6 33.9312C30.7042 32.9937 30.2417 31.8792 30.2417 30.6396C30.2417 30.1729 30.3125 29.7042 30.45 29.2396C30.5812 28.8 31.8333 25.85 32.1937 25.1437C32.7167 24.1208 33.5479 22.6354 34.6875 20.6917L38.3958 22.05L36.4854 25.9667C37.0042 26.2021 38.0125 26.7708 38.4354 27.2021ZM35.0396 28.7958C34.8033 28.7936 34.569 28.8386 34.3505 28.9283C34.1319 29.018 33.9335 29.1505 33.7669 29.3181C33.6003 29.4856 33.469 29.6848 33.3806 29.9039C33.2921 30.123 33.2485 30.3575 33.2521 30.5937C33.2496 30.8309 33.2948 31.0662 33.385 31.2856C33.4752 31.5049 33.6085 31.704 33.7771 31.8708C34.029 32.1256 34.3512 32.2994 34.7024 32.3702C35.0536 32.441 35.418 32.4054 35.7489 32.2682C36.0799 32.1309 36.3624 31.898 36.5603 31.5994C36.7583 31.3008 36.8628 30.9499 36.8604 30.5917C36.8636 30.3554 36.8191 30.1209 36.7296 29.9022C36.6401 29.6835 36.5075 29.485 36.3396 29.3187C36.169 29.1495 35.9663 29.0161 35.7434 28.9263C35.5205 28.8365 35.2819 28.7922 35.0417 28.7958H35.0396Z" fill="black"/>
</svg>
