<svg width="50" height="50" viewBox="0 0 50 50" fill="none" xmlns="http://www.w3.org/2000/svg">
<path d="M21.1667 23.3333H29.5V17.0833C29.5 16.5308 29.7195 16.0009 30.1102 15.6102C30.5009 15.2195 31.0308 15 31.5833 15C32.1359 15 32.6658 15.2195 33.0565 15.6102C33.4472 16.0009 33.6667 16.5308 33.6667 17.0833V33.75C33.6667 34.3025 33.4472 34.8324 33.0565 35.2231C32.6658 35.6138 32.1359 35.8333 31.5833 35.8333C31.0308 35.8333 30.5009 35.6138 30.1102 35.2231C29.7195 34.8324 29.5 34.3025 29.5 33.75V27.5H21.1667V33.75C21.1667 34.3025 20.9472 34.8324 20.5565 35.2231C20.1658 35.6138 19.6359 35.8333 19.0833 35.8333C18.5308 35.8333 18.0009 35.6138 17.6102 35.2231C17.2195 34.8324 17 34.3025 17 33.75V17.0833C17 16.5308 17.2195 16.0009 17.6102 15.6102C18.0009 15.2195 18.5308 15 19.0833 15C19.6359 15 20.1658 15.2195 20.5565 15.6102C20.9472 16.0009 21.1667 16.5308 21.1667 17.0833V23.3333Z" fill="black"/>
</svg>
