<svg width="50" height="50" viewBox="0 0 50 50" fill="none" xmlns="http://www.w3.org/2000/svg">
<path d="M20.3604 31.25L24.4229 18.75H21.875C21.3225 18.75 20.7926 18.5305 20.4019 18.1398C20.0112 17.7491 19.7917 17.2192 19.7917 16.6667C19.7917 16.1141 20.0112 15.5842 20.4019 15.1935C20.7926 14.8028 21.3225 14.5833 21.875 14.5833H32.2917C32.8442 14.5833 33.3741 14.8028 33.7648 15.1935C34.1555 15.5842 34.375 16.1141 34.375 16.6667C34.375 17.2192 34.1555 17.7491 33.7648 18.1398C33.3741 18.5305 32.8442 18.75 32.2917 18.75H28.8042L24.7417 31.25H28.125C28.6775 31.25 29.2074 31.4695 29.5981 31.8602C29.9888 32.2509 30.2083 32.7808 30.2083 33.3333C30.2083 33.8859 29.9888 34.4158 29.5981 34.8065C29.2074 35.1972 28.6775 35.4167 28.125 35.4167H17.7083C17.1558 35.4167 16.6259 35.1972 16.2352 34.8065C15.8445 34.4158 15.625 33.8859 15.625 33.3333C15.625 32.7808 15.8445 32.2509 16.2352 31.8602C16.6259 31.4695 17.1558 31.25 17.7083 31.25H20.3604Z" fill="black"/>
</svg>
