<svg width="50" height="50" viewBox="0 0 50 50" fill="none" xmlns="http://www.w3.org/2000/svg">
<path d="M16.6667 25C16.6667 25.5525 16.8862 26.0824 17.2769 26.4731C17.6676 26.8638 18.1975 27.0833 18.75 27.0833H31.25C31.8025 27.0833 32.3324 26.8638 32.7231 26.4731C33.1138 26.0824 33.3333 25.5525 33.3333 25C33.3333 24.4474 33.1138 23.9175 32.7231 23.5268C32.3324 23.1361 31.8025 22.9166 31.25 22.9166H18.75C18.1975 22.9166 17.6676 23.1361 17.2769 23.5268C16.8862 23.9175 16.6667 24.4474 16.6667 25Z" fill="#1F2937"/>
<path d="M18.75 33.3333H15.0208C12.8799 33.3904 10.7946 32.6471 9.17264 31.2485C7.55064 29.85 6.50852 27.8968 6.25 25.7708C6.14247 24.6134 6.27825 23.4464 6.64862 22.3446C7.01899 21.2428 7.61575 20.2307 8.40056 19.3733C9.18537 18.5159 10.1409 17.8322 11.2057 17.366C12.2705 16.8999 13.421 16.6616 14.5833 16.6666H18.75C19.3025 16.6666 19.8324 16.4471 20.2231 16.0564C20.6138 15.6657 20.8333 15.1358 20.8333 14.5833C20.8333 14.0308 20.6138 13.5009 20.2231 13.1102C19.8324 12.7195 19.3025 12.5 18.75 12.5H15.0208C11.9327 12.4587 8.93368 13.5342 6.57563 15.5286C4.21759 17.523 2.65927 20.302 2.1875 23.3541C1.95301 25.1195 2.09847 26.9147 2.61413 28.6193C3.12979 30.3239 4.00375 31.8987 5.17747 33.2381C6.35119 34.5776 7.79758 35.6507 9.41974 36.3857C11.0419 37.1207 12.8024 37.5006 14.5833 37.5H18.75C19.3025 37.5 19.8324 37.2805 20.2231 36.8898C20.6138 36.4991 20.8333 35.9692 20.8333 35.4166C20.8333 34.8641 20.6138 34.3342 20.2231 33.9435C19.8324 33.5528 19.3025 33.3333 18.75 33.3333ZM47.9167 23.4166C47.4508 20.326 45.873 17.5117 43.4795 15.5018C41.086 13.4918 38.0413 12.4245 34.9167 12.5H31.7708C30.0833 12.5 29.1667 13.4375 29.1667 14.5833C29.1667 15.1358 29.3862 15.6657 29.7769 16.0564C30.1676 16.4471 30.6975 16.6666 31.25 16.6666H34.9792C37.1201 16.6095 39.2054 17.3528 40.8274 18.7514C42.4494 20.1499 43.4915 22.1031 43.75 24.2291C43.8575 25.3865 43.7217 26.5536 43.3514 27.6553C42.981 28.7571 42.3842 29.7692 41.5994 30.6266C40.8146 31.484 39.8591 32.1678 38.7943 32.6339C37.7295 33.1 36.579 33.3383 35.4167 33.3333H31.25C30.6975 33.3333 30.1676 33.5528 29.7769 33.9435C29.3862 34.3342 29.1667 34.8641 29.1667 35.4166C29.1667 35.9692 29.3862 36.4991 29.7769 36.8898C30.1676 37.2805 30.6975 37.5 31.25 37.5H35.4167C37.2003 37.5143 38.9664 37.1468 40.5963 36.422C42.2262 35.6973 43.682 34.6321 44.8661 33.298C46.0502 31.964 46.935 30.392 47.4612 28.6876C47.9874 26.9832 48.1427 25.186 47.9167 23.4166Z" fill="#1F2937"/>
</svg>
