<svg width="50" height="50" viewBox="0 0 50 50" fill="none" xmlns="http://www.w3.org/2000/svg">
<path d="M18.75 14.5833H37.5C38.0525 14.5833 38.5824 14.8028 38.9731 15.1935C39.3638 15.5842 39.5833 16.1141 39.5833 16.6667C39.5833 17.2192 39.3638 17.7491 38.9731 18.1398C38.5824 18.5305 38.0525 18.75 37.5 18.75H18.75C18.1975 18.75 17.6676 18.5305 17.2769 18.1398C16.8862 17.7491 16.6667 17.2192 16.6667 16.6667C16.6667 16.1141 16.8862 15.5842 17.2769 15.1935C17.6676 14.8028 18.1975 14.5833 18.75 14.5833ZM18.75 31.25H37.5C38.0525 31.25 38.5824 31.4695 38.9731 31.8602C39.3638 32.2509 39.5833 32.7808 39.5833 33.3333C39.5833 33.8859 39.3638 34.4158 38.9731 34.8065C38.5824 35.1972 38.0525 35.4167 37.5 35.4167H18.75C18.1975 35.4167 17.6676 35.1972 17.2769 34.8065C16.8862 34.4158 16.6667 33.8859 16.6667 33.3333C16.6667 32.7808 16.8862 32.2509 17.2769 31.8602C17.6676 31.4695 18.1975 31.25 18.75 31.25ZM18.75 22.9167H37.5C38.0525 22.9167 38.5824 23.1362 38.9731 23.5269C39.3638 23.9176 39.5833 24.4475 39.5833 25C39.5833 25.5525 39.3638 26.0824 38.9731 26.4731C38.5824 26.8638 38.0525 27.0833 37.5 27.0833H18.75C18.1975 27.0833 17.6676 26.8638 17.2769 26.4731C16.8862 26.0824 16.6667 25.5525 16.6667 25C16.6667 24.4475 16.8862 23.9176 17.2769 23.5269C17.6676 23.1362 18.1975 22.9167 18.75 22.9167ZM11.3292 14.2604H12.8292L12.7313 18.75H11.7708L11.875 15.1667H10.8833L11.3292 14.2604ZM11.5063 24.1458L10.5688 24.0354C10.5917 23.5271 10.7563 23.1208 11.0563 22.8229C11.2093 22.6744 11.3909 22.5584 11.5899 22.4818C11.789 22.4052 12.0014 22.3696 12.2146 22.3771C12.5042 22.3771 12.7625 22.4396 12.9854 22.5625C13.2124 22.6879 13.4 22.874 13.5271 23.1C13.6567 23.3153 13.7265 23.5612 13.7292 23.8125C13.7201 24.129 13.6381 24.4391 13.4896 24.7188C13.3333 25.0375 13.05 25.4063 12.6417 25.8333L12.3125 26.1875H13.6604V27.0833H10.4458L10.4771 26.6021L11.8646 25.1854C12.1938 24.8521 12.4125 24.5854 12.5167 24.3896C12.6089 24.2346 12.6618 24.0593 12.6708 23.8792C12.6734 23.8137 12.6623 23.7484 12.6383 23.6874C12.6142 23.6265 12.5778 23.5711 12.5313 23.525C12.4818 23.4776 12.4233 23.4408 12.3592 23.4168C12.295 23.3928 12.2267 23.3822 12.1583 23.3854C12.0866 23.3838 12.0154 23.3981 11.9498 23.4272C11.8842 23.4564 11.826 23.4998 11.7792 23.5542C11.7083 23.6333 11.6188 23.8292 11.5063 24.1458ZM13.5521 33.3083C13.7188 33.5292 13.8042 33.7875 13.8042 34.0854C13.8069 34.2923 13.7656 34.4973 13.683 34.687C13.6003 34.8766 13.4783 35.0465 13.325 35.1854C12.9975 35.4876 12.5641 35.6485 12.1188 35.6333C11.911 35.6411 11.7037 35.6077 11.5089 35.5351C11.314 35.4625 11.1354 35.3522 10.9833 35.2104C10.6875 34.9271 10.525 34.5438 10.6021 33.9542L11.5521 34.0417C11.5833 34.2521 11.6563 34.4042 11.7604 34.5C11.8723 34.5968 12.0168 34.6474 12.1646 34.6417C12.3375 34.6417 12.4771 34.5875 12.5875 34.4792C12.6415 34.4286 12.6843 34.3672 12.713 34.299C12.7417 34.2308 12.7557 34.1573 12.7542 34.0833C12.754 33.9979 12.7332 33.9137 12.6937 33.8379C12.6542 33.7622 12.5971 33.697 12.5271 33.6479C12.3708 33.5229 12.1375 33.4604 11.7229 33.35L11.8188 32.5146C11.9636 32.5093 12.1066 32.4797 12.2417 32.4271C12.319 32.3921 12.3853 32.3366 12.4333 32.2667C12.4764 32.2057 12.4996 32.133 12.5 32.0583C12.5016 32.016 12.494 31.9738 12.4778 31.9346C12.4616 31.8954 12.4372 31.8602 12.4063 31.8313C12.3337 31.7669 12.2385 31.7339 12.1417 31.7396C12.0437 31.7391 11.9484 31.7714 11.8708 31.8313C11.7911 31.8894 11.7325 31.9721 11.7042 32.0667L11.6042 32.1396L10.6792 32.0229C10.7093 31.7015 10.8448 31.399 11.0646 31.1625C11.2072 31.0146 11.379 30.898 11.5691 30.8202C11.7592 30.7424 11.9634 30.705 12.1688 30.7104C12.5625 30.7104 12.8979 30.8354 13.1667 31.0896C13.295 31.2035 13.3976 31.3434 13.4676 31.5C13.5377 31.6566 13.5736 31.8264 13.5729 31.9979C13.5743 32.2129 13.5111 32.4234 13.3917 32.6021C13.275 32.7792 13.1083 32.9208 12.8792 32.8521C13.1464 32.9286 13.3821 33.0884 13.5521 33.3083Z" fill="black"/>
</svg>
