<svg width="50" height="50" viewBox="0 0 50 50" fill="none" xmlns="http://www.w3.org/2000/svg">
<path d="M34.2083 13.25C31.8601 13.25 29.608 14.1828 27.9475 15.8433C26.287 17.5038 25.3542 19.7559 25.3542 22.1042C25.3542 24.4524 26.287 26.7045 27.9475 28.365C29.608 30.0255 31.8601 30.9583 34.2083 30.9583H35.25V40.8542C35.25 41.2686 35.4146 41.666 35.7076 41.959C36.0007 42.252 36.3981 42.4167 36.8125 42.4167C37.2269 42.4167 37.6243 42.252 37.9174 41.959C38.2104 41.666 38.375 41.2686 38.375 40.8542V16.375H40.4583V40.8542C40.4583 41.2686 40.623 41.666 40.916 41.959C41.209 42.252 41.6064 42.4167 42.0208 42.4167C42.4352 42.4167 42.8327 42.252 43.1257 41.959C43.4187 41.666 43.5833 41.2686 43.5833 40.8542V16.375H44.1042C44.5186 16.375 44.916 16.2104 45.209 15.9174C45.5021 15.6243 45.6667 15.2269 45.6667 14.8125C45.6667 14.3981 45.5021 14.0007 45.209 13.7076C44.916 13.4146 44.5186 13.25 44.1042 13.25H34.2083ZM34.2083 16.375H35.25V27.8333H34.2083C32.6889 27.8333 31.2316 27.2297 30.1572 26.1553C29.0828 25.0809 28.4792 23.6236 28.4792 22.1042C28.4792 20.5847 29.0828 19.1275 30.1572 18.053C31.2316 16.9786 32.6889 16.375 34.2083 16.375V16.375Z" fill="black"/>
<path d="M5.5625 7C5.1481 7 4.75067 7.16462 4.45765 7.45765C4.16462 7.75067 4 8.1481 4 8.5625C4 8.9769 4.16462 9.37433 4.45765 9.66735C4.75067 9.96038 5.1481 10.125 5.5625 10.125H44.1042C44.5186 10.125 44.916 9.96038 45.209 9.66735C45.502 9.37433 45.6667 8.9769 45.6667 8.5625C45.6667 8.1481 45.502 7.75067 45.209 7.45765C44.916 7.16462 44.5186 7 44.1042 7H5.5625Z" fill="black"/>
<path d="M5.5625 17.4167C5.1481 17.4167 4.75067 17.5813 4.45765 17.8743C4.16462 18.1673 4 18.5648 4 18.9792C4 19.3936 4.16462 19.791 4.45765 20.084C4.75067 20.377 5.1481 20.5417 5.5625 20.5417H23.3813C23.5396 19.4375 23.8604 18.3875 24.3229 17.4167H5.5625Z" fill="black"/>
<path d="M24.8896 27.8333H5.5625C5.1481 27.8333 4.75067 27.998 4.45765 28.291C4.16462 28.584 4 28.9814 4 29.3958C4 29.8102 4.16462 30.2077 4.45765 30.5007C4.75067 30.7937 5.1481 30.9583 5.5625 30.9583H27.7854C26.6256 30.1154 25.6419 29.0538 24.8896 27.8333V27.8333Z" fill="black"/>
</svg>
