<svg width="50" height="50" viewBox="0 0 50 50" fill="none" xmlns="http://www.w3.org/2000/svg">
<path d="M22.2021 21.7396H16.9791C16.7713 21.1076 16.6658 20.4465 16.6666 19.7812V18.7458C16.6666 16.8131 17.4344 14.9595 18.8011 13.5928C20.1678 12.2261 22.0214 11.4583 23.9541 11.4583H27.0833C28.7409 11.4583 30.3306 12.1168 31.5027 13.2889C32.6748 14.461 33.3333 16.0507 33.3333 17.7083C33.3333 18.2609 33.1138 18.7908 32.7231 19.1815C32.3324 19.5722 31.8025 19.7917 31.25 19.7917C30.6974 19.7917 30.1675 19.5722 29.7768 19.1815C29.3861 18.7908 29.1666 18.2609 29.1666 17.7083C29.1666 17.1558 28.9472 16.6259 28.5565 16.2352C28.1658 15.8445 27.6358 15.625 27.0833 15.625H23.9541C22.2291 15.625 20.8333 17.0208 20.8333 18.7458V19.7812C20.833 20.2087 20.9642 20.6258 21.2091 20.9761C21.4539 21.3264 21.8006 21.593 22.2021 21.7396ZM33.0062 26.1146C33.2187 26.7417 33.3333 27.4146 33.3333 28.1146V29.2146C33.3333 31.1639 32.5589 33.0334 31.1805 34.4118C29.8022 35.7902 27.9327 36.5646 25.9833 36.5646H22.9166C21.259 36.5646 19.6693 35.9061 18.4972 34.734C17.3251 33.5619 16.6666 31.9722 16.6666 30.3146V30.2083C16.6666 29.6558 16.8861 29.1259 17.2768 28.7352C17.6675 28.3445 18.1974 28.125 18.75 28.125C19.3025 28.125 19.8324 28.3445 20.2231 28.7352C20.6138 29.1259 20.8333 29.6558 20.8333 30.2083V30.3125C20.8333 30.865 21.0528 31.3949 21.4435 31.7856C21.8342 32.1763 22.3641 32.3958 22.9166 32.3958H25.9833C27.7416 32.3958 29.1666 30.9729 29.1666 29.2146V28.1146C29.1666 27.6638 29.0204 27.2252 28.75 26.8646C28.4795 26.504 28.0994 26.2408 27.6666 26.1146H33.0062ZM15.625 22.9375H34.375C34.6512 22.9375 34.9162 23.0472 35.1115 23.2426C35.3069 23.4379 35.4166 23.7029 35.4166 23.9792C35.4166 24.2554 35.3069 24.5204 35.1115 24.7157C34.9162 24.9111 34.6512 25.0208 34.375 25.0208H15.625C15.3487 25.0208 15.0838 24.9111 14.8884 24.7157C14.6931 24.5204 14.5833 24.2554 14.5833 23.9792C14.5833 23.7029 14.6931 23.4379 14.8884 23.2426C15.0838 23.0472 15.3487 22.9375 15.625 22.9375Z" fill="black"/>
</svg>
