<svg width="50" height="50" viewBox="0 0 50 50" fill="none" xmlns="http://www.w3.org/2000/svg">
<path d="M18.75 14.5833H37.5C38.0525 14.5833 38.5824 14.8028 38.9731 15.1935C39.3638 15.5842 39.5833 16.1141 39.5833 16.6667C39.5833 17.2192 39.3638 17.7491 38.9731 18.1398C38.5824 18.5305 38.0525 18.75 37.5 18.75H18.75C18.1975 18.75 17.6676 18.5305 17.2769 18.1398C16.8862 17.7491 16.6667 17.2192 16.6667 16.6667C16.6667 16.1141 16.8862 15.5842 17.2769 15.1935C17.6676 14.8028 18.1975 14.5833 18.75 14.5833ZM18.75 31.25H37.5C38.0525 31.25 38.5824 31.4695 38.9731 31.8602C39.3638 32.2509 39.5833 32.7808 39.5833 33.3333C39.5833 33.8859 39.3638 34.4158 38.9731 34.8065C38.5824 35.1972 38.0525 35.4167 37.5 35.4167H18.75C18.1975 35.4167 17.6676 35.1972 17.2769 34.8065C16.8862 34.4158 16.6667 33.8859 16.6667 33.3333C16.6667 32.7808 16.8862 32.2509 17.2769 31.8602C17.6676 31.4695 18.1975 31.25 18.75 31.25ZM18.75 22.9167H37.5C38.0525 22.9167 38.5824 23.1362 38.9731 23.5269C39.3638 23.9176 39.5833 24.4475 39.5833 25C39.5833 25.5525 39.3638 26.0824 38.9731 26.4731C38.5824 26.8638 38.0525 27.0833 37.5 27.0833H18.75C18.1975 27.0833 17.6676 26.8638 17.2769 26.4731C16.8862 26.0824 16.6667 25.5525 16.6667 25C16.6667 24.4475 16.8862 23.9176 17.2769 23.5269C17.6676 23.1362 18.1975 22.9167 18.75 22.9167ZM12.5 14.5833C13.0525 14.5833 13.5824 14.8028 13.9731 15.1935C14.3638 15.5842 14.5833 16.1141 14.5833 16.6667C14.5833 17.2192 14.3638 17.7491 13.9731 18.1398C13.5824 18.5305 13.0525 18.75 12.5 18.75C11.9475 18.75 11.4176 18.5305 11.0269 18.1398C10.6362 17.7491 10.4167 17.2192 10.4167 16.6667C10.4167 16.1141 10.6362 15.5842 11.0269 15.1935C11.4176 14.8028 11.9475 14.5833 12.5 14.5833ZM12.5 31.25C13.0525 31.25 13.5824 31.4695 13.9731 31.8602C14.3638 32.2509 14.5833 32.7808 14.5833 33.3333C14.5833 33.8859 14.3638 34.4158 13.9731 34.8065C13.5824 35.1972 13.0525 35.4167 12.5 35.4167C11.9475 35.4167 11.4176 35.1972 11.0269 34.8065C10.6362 34.4158 10.4167 33.8859 10.4167 33.3333C10.4167 32.7808 10.6362 32.2509 11.0269 31.8602C11.4176 31.4695 11.9475 31.25 12.5 31.25ZM12.5 22.9167C13.0525 22.9167 13.5824 23.1362 13.9731 23.5269C14.3638 23.9176 14.5833 24.4475 14.5833 25C14.5833 25.5525 14.3638 26.0824 13.9731 26.4731C13.5824 26.8638 13.0525 27.0833 12.5 27.0833C11.9475 27.0833 11.4176 26.8638 11.0269 26.4731C10.6362 26.0824 10.4167 25.5525 10.4167 25C10.4167 24.4475 10.6362 23.9176 11.0269 23.5269C11.4176 23.1362 11.9475 22.9167 12.5 22.9167Z" fill="black"/>
</svg>
