<svg width="963" height="163" viewBox="0 0 963 163" fill="none" xmlns="http://www.w3.org/2000/svg">
<path d="M0.200001 160H53C85.6 160 110.4 146.2 110.4 116.4C110.4 96.4 98.6 85.2 82.6 81.4V80.4C95.2 76 102.8 62 102.8 48.4C102.8 20.8 79.6 12 49.2 12H0.200001V160ZM29.8 72.2V34.6H47.4C65.2 34.6 74 39.8 74 52.8C74 64.6 65.8 72.2 47 72.2H29.8ZM29.8 137.2V94.2H50.4C70.8 94.2 81.6 100.2 81.6 114.6C81.6 130 70.6 137.2 50.4 137.2H29.8Z" fill="#F69893"/>
<path d="M180.733 162.8C208.733 162.8 234.533 141.2 234.533 104.2C234.533 66.8 208.733 45.2 180.733 45.2C152.733 45.2 126.933 66.8 126.933 104.2C126.933 141.2 152.733 162.8 180.733 162.8ZM180.733 138.8C165.533 138.8 156.933 125.2 156.933 104.2C156.933 83 165.533 69.2 180.733 69.2C195.933 69.2 204.533 83 204.533 104.2C204.533 125.2 195.933 138.8 180.733 138.8ZM305.928 162.8C333.928 162.8 359.728 141.2 359.728 104.2C359.728 66.8 333.928 45.2 305.928 45.2C277.928 45.2 252.128 66.8 252.128 104.2C252.128 141.2 277.928 162.8 305.928 162.8ZM305.928 138.8C290.728 138.8 282.128 125.2 282.128 104.2C282.128 83 290.728 69.2 305.928 69.2C321.128 69.2 329.728 83 329.728 104.2C329.728 125.2 321.128 138.8 305.928 138.8ZM384.323 160H412.923V132L429.123 113.6L456.323 160H488.123L445.723 93.8L484.523 48H452.523L413.723 96.4H412.923V0.399992H384.323V160ZM703.72 162.8C716.52 162.8 727.72 156.4 737.52 148H738.12L740.32 160H764.32V94.6C764.32 62.2 749.72 45.2 721.32 45.2C703.72 45.2 687.72 51.8 674.52 60L685.12 79.4C695.52 73.4 705.52 68.8 715.92 68.8C729.72 68.8 734.52 77.2 734.92 88.2C689.92 93 670.52 105.6 670.52 129.6C670.52 148.6 683.72 162.8 703.72 162.8ZM713.32 139.8C704.72 139.8 698.52 136 698.52 127.2C698.52 117.2 707.72 109.8 734.92 106.2V128.8C727.92 135.8 721.72 139.8 713.32 139.8ZM831.573 162.8C841.373 162.8 849.173 160.6 855.173 158.6L850.373 137.2C847.373 138.4 842.973 139.6 839.373 139.6C829.373 139.6 824.173 133.6 824.173 120.8V71.2H851.773V48H824.173V18H799.573L796.173 48L778.973 49.4V71.2H794.773V120.8C794.773 146 804.973 162.8 831.573 162.8ZM919.447 162.8C933.447 162.8 947.647 158 958.647 150.4L948.647 132.4C940.647 137.4 932.647 140.2 923.447 140.2C906.847 140.2 894.847 130.6 892.447 112.2H961.447C962.247 109.6 962.847 104.2 962.847 98.8C962.847 67.8 946.847 45.2 916.047 45.2C889.247 45.2 863.847 67.8 863.847 104.2C863.847 141 888.247 162.8 919.447 162.8ZM892.047 92.8C894.247 76.4 904.647 68 916.447 68C930.847 68 937.647 77.6 937.647 92.8H892.047Z" fill="black"/>
<path d="M507.817 160H534.417V98.2C534.417 84.2 532.017 63.6 530.617 49.6H531.417L543.217 84.4L566.217 146.6H583.217L606.017 84.4L618.017 49.6H618.817C617.417 63.6 615.217 84.2 615.217 98.2V160H642.217V12H609.417L584.817 81.2C581.617 90.4 579.017 100.2 575.817 109.8H574.817C571.817 100.2 569.017 90.4 565.817 81.2L540.617 12H507.817V160Z" fill="#70C4FD"/>
</svg>
