<svg width="702" height="178" viewBox="0 0 702 178" fill="none" xmlns="http://www.w3.org/2000/svg">
<path d="M16.79 0.851807H123.765C123.799 0.851807 123.827 0.879717 123.827 0.914146V0.914146C123.827 4.35706 121.036 7.1481 117.593 7.1481H16.79V0.851807Z" fill="#F69893"/>
<path d="M16.79 28.1357H117.593C121.036 28.1357 123.827 30.9268 123.827 34.3697V34.3697C123.827 34.4041 123.799 34.432 123.765 34.432H16.79V28.1357Z" fill="#F69893"/>
<circle cx="16.7901" cy="17.6419" r="16.7901" fill="#F69893"/>
<circle cx="16.79" cy="17.642" r="10.4938" fill="#FCA5A5"/>
<path fill-rule="evenodd" clip-rule="evenodd" d="M117.531 7.14813H16.7202V28.1358H117.531V28.1357C117.521 28.1123 115.5 23.423 115.5 17.642C115.5 11.8609 117.521 7.17169 117.531 7.14824V7.14813Z" fill="#FCA5A5"/>
<path d="M16.79 143.568H123.765C123.799 143.568 123.827 143.596 123.827 143.63V143.63C123.827 147.073 121.036 149.864 117.593 149.864H16.79V143.568Z" fill="#F69893"/>
<path d="M16.79 170.852H117.593C121.036 170.852 123.827 173.643 123.827 177.086V177.086C123.827 177.12 123.799 177.148 123.765 177.148H16.79V170.852Z" fill="#F69893"/>
<circle cx="16.7901" cy="160.358" r="16.7901" fill="#F69893"/>
<circle cx="16.79" cy="160.358" r="10.4938" fill="#FCA5A5"/>
<path fill-rule="evenodd" clip-rule="evenodd" d="M117.531 149.864H16.7202V170.852H117.531C117.521 170.828 115.5 166.139 115.5 160.358C115.5 154.577 117.521 149.888 117.531 149.864V149.864Z" fill="#FCA5A5"/>
<circle cx="108.716" cy="61.716" r="27.284" fill="#70C4FD"/>
<circle cx="108.716" cy="61.716" r="20.9877" fill="#93C5FD"/>
<path fill-rule="evenodd" clip-rule="evenodd" d="M6.71612 82.7037C6.71612 82.7037 10.7161 73.3072 10.7161 61.716C10.7161 50.1291 6.71907 40.7353 6.71613 40.7284H108.716V82.7037H6.71582C6.71592 82.7037 6.71602 82.7037 6.71612 82.7037Z" fill="#93C5FD"/>
<path d="M0 34.4944C0 34.46 0.0279104 34.4321 0.0623396 34.4321H108.604V40.7284H6.23396C2.79104 40.7284 0 37.9373 0 34.4944V34.4944Z" fill="#70C4FD"/>
<path d="M0 88.9376C0 85.4947 2.79104 82.7037 6.23396 82.7037H108.604V89H0.0623378C0.0279086 89 0 88.9721 0 88.9376V88.9376Z" fill="#70C4FD"/>
<circle cx="108.716" cy="116.284" r="27.284" fill="#19EBAC"/>
<circle cx="108.716" cy="116.284" r="20.9877" fill="#6EE7B7"/>
<path fill-rule="evenodd" clip-rule="evenodd" d="M6.71612 137.272C6.71612 137.272 10.7161 127.875 10.7161 116.284C10.7161 104.703 6.72295 95.3123 6.71613 95.2963H108.716V137.272H6.71582C6.71592 137.272 6.71602 137.272 6.71612 137.272Z" fill="#6EE7B7"/>
<path d="M0 89.0623C0 89.0279 0.0279104 89 0.0623396 89H108.604V95.2963H6.23396C2.79104 95.2963 0 92.5053 0 89.0623V89.0623Z" fill="#19EBAC"/>
<path d="M0 143.506C0 140.063 2.79104 137.272 6.23396 137.272H108.604V143.568H0.0623378C0.0279086 143.568 0 143.54 0 143.506V143.506Z" fill="#19EBAC"/>
<path d="M168.72 139H194.64C214.32 139 227.28 130.36 227.28 113.44C227.28 101.44 219.84 94.36 208.56 92.44V91.84C217.32 89.2 222 81.76 222 72.76C222 58 210.48 51.52 192.84 51.52H168.72V139ZM175.92 89.68V57.4H191.28C206.76 57.4 214.8 61.72 214.8 73.6C214.8 83.56 207.84 89.68 190.56 89.68H175.92ZM175.92 133V95.44H192.96C210.36 95.44 220.2 101.2 220.2 113.44C220.2 127 209.88 133 192.96 133H175.92Z" fill="#F69893"/>
<path d="M268.632 140.56C284.112 140.56 297.552 128.32 297.552 107.08C297.552 85.72 284.112 73.36 268.632 73.36C253.152 73.36 239.712 85.72 239.712 107.08C239.712 128.32 253.152 140.56 268.632 140.56ZM268.632 134.56C256.152 134.56 247.032 123.4 247.032 107.08C247.032 90.76 256.152 79.48 268.632 79.48C281.112 79.48 290.352 90.76 290.352 107.08C290.352 123.4 281.112 134.56 268.632 134.56ZM339.882 140.56C355.362 140.56 368.802 128.32 368.802 107.08C368.802 85.72 355.362 73.36 339.882 73.36C324.402 73.36 310.962 85.72 310.962 107.08C310.962 128.32 324.402 140.56 339.882 140.56ZM339.882 134.56C327.402 134.56 318.282 123.4 318.282 107.08C318.282 90.76 327.402 79.48 339.882 79.48C352.362 79.48 361.602 90.76 361.602 107.08C361.602 123.4 352.362 134.56 339.882 134.56ZM387.492 139H394.452V121.72L408.252 105.4L428.892 139H436.572L412.332 100.36L433.212 75.04H425.292L394.692 112.72H394.452V43.6H387.492V139ZM558.684 140.56C566.844 140.56 574.524 136.12 581.004 130.84H581.244L581.964 139H587.844V98.44C587.844 84.28 582.444 73.36 567.204 73.36C556.764 73.36 547.884 78.4 542.964 81.76L546.084 86.8C550.524 83.44 557.844 79.48 566.244 79.48C578.364 79.48 581.124 89.32 580.884 98.8C552.684 102.04 540.084 108.76 540.084 122.92C540.084 134.8 548.364 140.56 558.684 140.56ZM560.124 134.68C553.044 134.68 547.044 131.32 547.044 122.56C547.044 112.72 555.684 106.84 580.884 103.96V124.72C573.324 131.32 567.204 134.68 560.124 134.68ZM626.625 140.56C629.505 140.56 633.585 139.48 637.305 138.16L635.625 132.76C633.345 133.72 630.225 134.56 627.825 134.56C619.305 134.56 617.145 129.28 617.145 121.24V80.92H635.505V75.04H617.145V56.56H611.265L610.425 75.04L600.225 75.64V80.92H610.185V120.76C610.185 132.64 614.025 140.56 626.625 140.56ZM673.769 140.56C683.009 140.56 689.009 137.56 694.169 134.32L691.529 129.16C686.729 132.52 681.329 134.68 674.489 134.68C660.689 134.68 651.449 123.76 651.089 108.16H696.449C696.689 106.6 696.809 104.92 696.809 103.12C696.809 84.4 687.569 73.36 672.089 73.36C657.569 73.36 644.009 86.32 644.009 107.08C644.009 128.08 657.329 140.56 673.769 140.56ZM651.089 102.64C652.409 88 661.769 79.36 672.209 79.36C683.369 79.36 690.449 87.16 690.449 102.64H651.089Z" fill="black"/>
<path d="M450.791 139H457.391V83.56C457.391 76.36 456.911 66.76 456.551 59.44H457.031L463.871 79L482.351 129.64H488.111L506.471 79L513.311 59.44H513.791C513.431 66.76 512.951 76.36 512.951 83.56V139H519.791V51.52H510.191L492.191 101.8C490.031 108.16 487.991 114.64 485.711 121H485.231L478.391 101.8L460.391 51.52H450.791V139Z" fill="#70C4FD"/>
</svg>
