<svg width="50" height="50" viewBox="0 0 50 50" fill="none" xmlns="http://www.w3.org/2000/svg">
<path d="M25 8.33331C25.5525 8.33331 26.0824 8.55281 26.4731 8.94351C26.8638 9.33421 27.0833 9.86411 27.0833 10.4166V16.6666H33.3333C33.8858 16.6666 34.4158 16.8861 34.8065 17.2768C35.1972 17.6675 35.4166 18.1974 35.4166 18.75C35.4166 19.3025 35.1972 19.8324 34.8065 20.2231C34.4158 20.6138 33.8858 20.8333 33.3333 20.8333H27.0833V27.0833C27.0833 27.6358 26.8638 28.1658 26.4731 28.5565C26.0824 28.9472 25.5525 29.1666 25 29.1666C24.4474 29.1666 23.9175 28.9472 23.5268 28.5565C23.1361 28.1658 22.9166 27.6358 22.9166 27.0833V20.8333H16.6666C16.1141 20.8333 15.5842 20.6138 15.1935 20.2231C14.8028 19.8324 14.5833 19.3025 14.5833 18.75C14.5833 18.1974 14.8028 17.6675 15.1935 17.2768C15.5842 16.8861 16.1141 16.6666 16.6666 16.6666H22.9166V10.4166C22.9166 9.86411 23.1361 9.33421 23.5268 8.94351C23.9175 8.55281 24.4474 8.33331 25 8.33331Z" fill="black"/>
<path d="M6.25 39.5833C6.25 39.0308 6.46949 38.5009 6.86019 38.1102C7.25089 37.7195 7.7808 37.5 8.33333 37.5H41.6667C42.2192 37.5 42.7491 37.7195 43.1398 38.1102C43.5305 38.5009 43.75 39.0308 43.75 39.5833C43.75 40.1359 43.5305 40.6658 43.1398 41.0565C42.7491 41.4472 42.2192 41.6667 41.6667 41.6667H8.33333C7.7808 41.6667 7.25089 41.4472 6.86019 41.0565C6.46949 40.6658 6.25 40.1359 6.25 39.5833Z" fill="black"/>
</svg>
