<svg width="50" height="50" viewBox="0 0 50 50" fill="none" xmlns="http://www.w3.org/2000/svg">
<path d="M6.25 10.4166C6.25 10.9692 6.46949 11.4991 6.86019 11.8898C7.25089 12.2805 7.7808 12.5 8.33333 12.5H41.6667C42.2192 12.5 42.7491 12.2805 43.1398 11.8898C43.5305 11.4991 43.75 10.9692 43.75 10.4166C43.75 9.86411 43.5305 9.33421 43.1398 8.94351C42.7491 8.55281 42.2192 8.33331 41.6667 8.33331H8.33333C7.7808 8.33331 7.25089 8.55281 6.86019 8.94351C6.46949 9.33421 6.25 9.86411 6.25 10.4166Z" fill="black"/>
<path d="M25 41.6666C25.5525 41.6666 26.0824 41.4472 26.4731 41.0565C26.8638 40.6658 27.0833 40.1358 27.0833 39.5833V33.3333H33.3333C33.8858 33.3333 34.4158 33.1138 34.8065 32.7231C35.1972 32.3324 35.4166 31.8025 35.4166 31.25C35.4166 30.6974 35.1972 30.1675 34.8065 29.7768C34.4158 29.3861 33.8858 29.1666 33.3333 29.1666H27.0833V22.9166C27.0833 22.3641 26.8638 21.8342 26.4731 21.4435C26.0824 21.0528 25.5525 20.8333 25 20.8333C24.4474 20.8333 23.9175 21.0528 23.5268 21.4435C23.1361 21.8342 22.9166 22.3641 22.9166 22.9166V29.1666H16.6666C16.1141 29.1666 15.5842 29.3861 15.1935 29.7768C14.8028 30.1675 14.5833 30.6974 14.5833 31.25C14.5833 31.8025 14.8028 32.3324 15.1935 32.7231C15.5842 33.1138 16.1141 33.3333 16.6666 33.3333H22.9166V39.5833C22.9166 40.1358 23.1361 40.6658 23.5268 41.0565C23.9175 41.4472 24.4474 41.6666 25 41.6666Z" fill="black"/>
</svg>
