<svg width="50" height="50" viewBox="0 0 50 50" fill="none" xmlns="http://www.w3.org/2000/svg">
<path d="M25 14.5834C23.8542 14.5834 22.9167 15.5209 22.9167 16.6667V22.9167H16.6667C15.5209 22.9167 14.5834 23.8542 14.5834 25C14.5834 26.1459 15.5209 27.0834 16.6667 27.0834H22.9167V33.3334C22.9167 34.4792 23.8542 35.4167 25 35.4167C26.1459 35.4167 27.0834 34.4792 27.0834 33.3334V27.0834H33.3334C34.4792 27.0834 35.4167 26.1459 35.4167 25C35.4167 23.8542 34.4792 22.9167 33.3334 22.9167H27.0834V16.6667C27.0834 15.5209 26.1459 14.5834 25 14.5834ZM25 4.16669C13.5 4.16669 4.16669 13.5 4.16669 25C4.16669 36.5 13.5 45.8334 25 45.8334C36.5 45.8334 45.8334 36.5 45.8334 25C45.8334 13.5 36.5 4.16669 25 4.16669ZM25 41.6667C15.8125 41.6667 8.33335 34.1875 8.33335 25C8.33335 15.8125 15.8125 8.33335 25 8.33335C34.1875 8.33335 41.6667 15.8125 41.6667 25C41.6667 34.1875 34.1875 41.6667 25 41.6667Z" fill="black"/>
</svg>
