<svg width="50" height="50" viewBox="0 0 50 50" fill="none" xmlns="http://www.w3.org/2000/svg">
<path d="M37.5 27.0833H27.0834V37.5C27.0834 38.6458 26.1459 39.5833 25 39.5833C23.8542 39.5833 22.9167 38.6458 22.9167 37.5V27.0833H12.5C11.3542 27.0833 10.4167 26.1458 10.4167 25C10.4167 23.8541 11.3542 22.9166 12.5 22.9166H22.9167V12.5C22.9167 11.3541 23.8542 10.4166 25 10.4166C26.1459 10.4166 27.0834 11.3541 27.0834 12.5V22.9166H37.5C38.6459 22.9166 39.5834 23.8541 39.5834 25C39.5834 26.1458 38.6459 27.0833 37.5 27.0833Z" fill="#2B292E"/>
</svg>
