<svg width="50" height="50" viewBox="0 0 50 50" fill="none" xmlns="http://www.w3.org/2000/svg">
<path d="M29.1667 33.3333C28.7547 33.3332 28.352 33.211 28.0095 32.982C27.6669 32.7531 27.4 32.4278 27.2423 32.0471C27.0847 31.6665 27.0434 31.2477 27.1238 30.8436C27.2041 30.4396 27.4025 30.0684 27.6938 29.777L42.2771 15.1937C42.67 14.8142 43.1963 14.6042 43.7425 14.609C44.2887 14.6137 44.8113 14.8328 45.1975 15.2191C45.5838 15.6053 45.8029 16.1279 45.8077 16.6741C45.8124 17.2204 45.6024 17.7466 45.2229 18.1395L30.6396 32.7229C30.4464 32.9166 30.2168 33.0703 29.964 33.175C29.7113 33.2798 29.4403 33.3336 29.1667 33.3333ZM6.25 35.4166C5.83802 35.4165 5.43532 35.2943 5.0928 35.0654C4.75028 34.8364 4.48332 34.5111 4.32567 34.1305C4.16803 33.7499 4.12677 33.331 4.20712 32.927C4.28747 32.5229 4.48582 32.1517 4.77709 31.8604L17.2771 19.3604C17.67 18.9809 18.1963 18.7709 18.7425 18.7756C19.2887 18.7804 19.8113 18.9995 20.1975 19.3857C20.5838 19.772 20.8029 20.2945 20.8077 20.8408C20.8124 21.387 20.6024 21.9133 20.2229 22.3062L7.72292 34.8062C7.52971 35 7.30013 35.1536 7.04736 35.2584C6.79459 35.3631 6.52362 35.4169 6.25 35.4166Z" fill="#2B292E"/>
<path d="M29.1667 33.3334C28.893 33.3336 28.6221 33.2799 28.3693 33.1751C28.1165 33.0704 27.8869 32.9167 27.6937 32.7229L17.2771 22.3063C16.8976 21.9134 16.6876 21.3871 16.6923 20.8409C16.6971 20.2946 16.9162 19.7721 17.3025 19.3858C17.6887 18.9996 18.2112 18.7805 18.7575 18.7757C19.3037 18.771 19.83 18.981 20.2229 19.3605L30.6396 29.7771C30.9308 30.0685 31.1292 30.4396 31.2095 30.8437C31.2899 31.2478 31.2486 31.6666 31.091 32.0472C30.9333 32.4279 30.6664 32.7532 30.3239 32.9821C29.9813 33.211 29.5786 33.3333 29.1667 33.3334Z" fill="#2B292E"/>
</svg>
