<svg width="50" height="50" viewBox="0 0 50 50" fill="none" xmlns="http://www.w3.org/2000/svg">
<path fill-rule="evenodd" clip-rule="evenodd" d="M17.8344 42.8343C17.4922 43.1775 17.075 43.4364 16.6156 43.5906L7.24062 46.7156C6.68983 46.9 6.09854 46.9272 5.53312 46.7943C4.96769 46.6613 4.45052 46.3734 4.03964 45.9628C3.62876 45.5523 3.34043 45.0353 3.20702 44.47C3.07361 43.9047 3.1004 43.3134 3.28437 42.7625L6.40937 33.3875C6.56312 32.927 6.82205 32.5086 7.16562 32.1656L31.5187 7.81246C32.6908 6.64077 34.2802 5.98254 35.9375 5.98254C37.5948 5.98254 39.1842 6.64077 40.3562 7.81246L42.1875 9.64371C43.3592 10.8158 44.0174 12.4052 44.0174 14.0625C44.0174 15.7197 43.3592 17.3092 42.1875 18.4812L17.8344 42.8343ZM9.375 34.375L33.7281 10.0218C34.3141 9.43599 35.1089 9.10688 35.9375 9.10688C36.7661 9.10688 37.5608 9.43599 38.1469 10.0218L39.9781 11.8531C40.564 12.4391 40.8931 13.2338 40.8931 14.0625C40.8931 14.8911 40.564 15.6858 39.9781 16.2718L15.625 40.625L6.25 43.75L9.375 34.375Z" fill="#2B292E"/>
<path d="M26.7287 6.14724L26.7285 6.14741L16.4348 16.438C16.2352 16.6376 16.123 16.9084 16.123 17.1907C16.123 17.473 16.2352 17.7437 16.4348 17.9434C16.6345 18.143 16.9052 18.2551 17.1875 18.2551C17.4698 18.2551 17.7406 18.143 17.9402 17.9434L28.2273 7.64694L26.7287 6.14724ZM26.7287 6.14724C27.1176 5.75811 27.5793 5.44942 28.0875 5.23881C28.5958 5.0282 29.1405 4.9198 29.6906 4.9198C30.2408 4.9198 30.7855 5.0282 31.2938 5.23881C31.802 5.44942 32.2637 5.75811 32.6526 6.14724L32.6533 6.14796M26.7287 6.14724L32.6533 6.14796M32.6533 6.14796L33.5686 7.0601M32.6533 6.14796L33.5686 7.0601M30.478 7.1985C30.7286 7.30248 30.9562 7.45487 31.1478 7.64694L31.1504 7.64962L31.1506 7.64975L32.0658 8.565L30.478 7.1985ZM30.478 7.1985C30.2274 7.09453 29.9588 7.04101 29.6875 7.04101M30.478 7.1985L29.6875 7.04101M29.6875 7.04101C29.4162 7.04101 29.1476 7.09453 28.897 7.1985M29.6875 7.04101L28.897 7.1985M28.897 7.1985C28.6466 7.30243 28.4191 7.45472 28.2276 7.64666L28.897 7.1985ZM33.5686 7.0601C33.7682 7.25938 33.8804 7.52977 33.8806 7.8118C33.8808 8.09382 33.7689 8.36437 33.5697 8.56393C33.3704 8.76349 33.1 8.87572 32.818 8.87592C32.5361 8.87612 32.2656 8.76437 32.0661 8.56525L33.5686 7.0601Z" fill="#2B292E" stroke="#2B292E"/>
<path d="M43.75 2.85693C42.9214 2.85693 42.1266 3.18604 41.5406 3.77189L37.5 7.81252L42.1875 12.5L46.1469 8.18752C46.6912 7.59388 46.9853 6.81299 46.9679 6.00775C46.949 5.1401 46.5644 4.37688 45.9594 3.77189C45.3734 3.18604 44.5786 2.85693 43.75 2.85693Z" fill="#2B292E"/>
</svg>
