<svg width="50" height="50" viewBox="0 0 50 50" fill="none" xmlns="http://www.w3.org/2000/svg">
<path d="M16.6667 8.33329C16.1142 8.33329 15.5842 8.55279 15.1935 8.94349C14.8028 9.33419 14.5834 9.86409 14.5834 10.4166V41.6666L20.7875 36.0062C21.9389 34.9557 23.4414 34.3733 25 34.3733C26.5587 34.3733 28.0611 34.9557 29.2125 36.0062L35.4167 41.6666V10.4166C35.4167 9.86409 35.1972 9.33419 34.8065 8.94349C34.4158 8.55279 33.8859 8.33329 33.3334 8.33329H16.6667ZM16.6667 4.16663H33.3334C34.991 4.16663 36.5807 4.82511 37.7528 5.99721C38.9249 7.16931 39.5834 8.75902 39.5834 10.4166V41.6666C39.5832 42.4744 39.3482 43.2647 38.907 43.9413C38.4658 44.618 37.8375 45.1518 37.0985 45.4778C36.3594 45.8039 35.5415 45.9081 34.7444 45.7777C33.9472 45.6474 33.2051 45.2881 32.6084 44.7437L26.4042 39.0833C26.0204 38.7331 25.5196 38.539 25 38.539C24.4805 38.539 23.9797 38.7331 23.5959 39.0833L17.3917 44.7437C16.795 45.2881 16.0529 45.6474 15.2557 45.7777C14.4585 45.9081 13.6406 45.8039 12.9016 45.4778C12.1625 45.1518 11.5342 44.618 11.093 43.9413C10.6519 43.2647 10.4169 42.4744 10.4167 41.6666V10.4166C10.4167 8.75902 11.0752 7.16931 12.2473 5.99721C13.4194 4.82511 15.0091 4.16663 16.6667 4.16663Z" fill="#2B292E"/>
</svg>
