<svg width="50" height="50" viewBox="0 0 50 50" fill="none" xmlns="http://www.w3.org/2000/svg">
<path d="M7.28054 7.55557L7.28049 7.55537C7.22313 7.32542 7.09054 7.12123 6.90379 6.9753C6.71708 6.8294 6.48696 6.7501 6.25 6.75C6.24998 6.75 6.24997 6.75 6.24995 6.75C6.24992 6.75 6.24989 6.75 6.24986 6.75L1.5625 6.75C1.28071 6.75 1.01046 6.86194 0.811199 7.0612C0.611942 7.26046 0.5 7.53071 0.5 7.8125C0.5 8.09429 0.611942 8.36454 0.811199 8.5638C1.01046 8.76306 1.28071 8.875 1.5625 8.875H5.03125H5.42165L5.51632 9.25375L11.4694 33.0694L11.4695 33.0696C11.5269 33.2996 11.6595 33.5038 11.8462 33.6497C12.0329 33.7956 12.263 33.8749 12.5 33.875L7.28054 7.55557ZM7.28054 7.55557L8.54616 12.6212L8.6408 13M7.28054 7.55557L8.6408 13M8.6408 13H9.03125M8.6408 13H9.03125M9.03125 13H45.3124M9.03125 13H45.3124M41.6555 33.0696L41.6556 33.0694L46.343 14.3196L41.6555 33.0696ZM41.6555 33.0696C41.5981 33.2996 41.4655 33.5038 41.2788 33.6497M41.6555 33.0696L41.2788 33.6497M45.3124 13C45.3124 13 45.3125 13 45.3125 13M45.3124 13H45.3125M45.3125 13C45.4738 13.0001 45.6331 13.0369 45.7781 13.1076M45.3125 13L45.7781 13.1076M45.7781 13.1076C45.9231 13.1784 46.0501 13.2813 46.1494 13.4085M45.7781 13.1076L46.1494 13.4085M46.1494 13.4085C46.2488 13.5357 46.3178 13.6839 46.3514 13.8417M46.1494 13.4085L46.3514 13.8417M46.3514 13.8417C46.3849 13.9995 46.382 14.1628 46.3431 14.3194L46.3514 13.8417ZM41.2788 33.6497C41.0921 33.7956 40.862 33.8749 40.625 33.875M41.2788 33.6497L40.625 33.875M40.625 33.875C40.625 33.875 40.6249 33.875 40.6249 33.875M40.625 33.875H40.6249M40.6249 33.875H12.5001H40.6249ZM9.8125 15.125H9.17211L9.32743 15.7463L13.2337 31.3713L13.3284 31.75H13.7188H39.4062H39.7966L39.8913 31.3713L43.7976 15.7463L43.9529 15.125H43.3125H9.8125ZM15.625 40.125C14.6636 40.125 13.7416 40.5069 13.0617 41.1867C12.3819 41.8666 12 42.7886 12 43.75C12 44.7114 12.3819 45.6334 13.0617 46.3133C13.7416 46.9931 14.6636 47.375 15.625 47.375C16.5864 47.375 17.5084 46.9931 18.1883 46.3133C18.8681 45.6334 19.25 44.7114 19.25 43.75C19.25 42.7886 18.8681 41.8666 18.1883 41.1867C17.5084 40.5069 16.5864 40.125 15.625 40.125ZM9.875 43.75C9.875 42.225 10.4808 40.7625 11.5591 39.6841C12.6375 38.6058 14.1 38 15.625 38C17.15 38 18.6125 38.6058 19.6909 39.6841C20.7692 40.7625 21.375 42.225 21.375 43.75C21.375 45.275 20.7692 46.7375 19.6909 47.8159C18.6125 48.8942 17.15 49.5 15.625 49.5C14.1 49.5 12.6375 48.8942 11.5591 47.8159C10.4808 46.7375 9.875 45.275 9.875 43.75ZM37.5 40.125C36.5386 40.125 35.6166 40.5069 34.9367 41.1867C34.2569 41.8666 33.875 42.7886 33.875 43.75C33.875 44.7114 34.2569 45.6334 34.9367 46.3133C35.6166 46.9931 36.5386 47.375 37.5 47.375C38.4614 47.375 39.3834 46.9931 40.0633 46.3133C40.7431 45.6334 41.125 44.7114 41.125 43.75C41.125 42.7886 40.7431 41.8666 40.0633 41.1867C39.3834 40.5069 38.4614 40.125 37.5 40.125ZM31.75 43.75C31.75 42.225 32.3558 40.7625 33.4341 39.6841C34.5125 38.6058 35.975 38 37.5 38C39.025 38 40.4875 38.6058 41.5659 39.6841C42.6442 40.7625 43.25 42.225 43.25 43.75C43.25 45.275 42.6442 46.7375 41.5659 47.8159C40.4875 48.8942 39.025 49.5 37.5 49.5C35.975 49.5 34.5125 48.8942 33.4341 47.8159C32.3558 46.7375 31.75 45.275 31.75 43.75Z" fill="#2B292E" stroke="#2B292E"/>
</svg>
