<svg width="50" height="50" viewBox="0 0 50 50" fill="none" xmlns="http://www.w3.org/2000/svg">
<path fill-rule="evenodd" clip-rule="evenodd" d="M0 7.8125C0 7.3981 0.16462 7.00067 0.457646 6.70765C0.750671 6.41462 1.1481 6.25 1.5625 6.25H6.25C6.59853 6.2501 6.93703 6.36672 7.21166 6.58133C7.48629 6.79593 7.68128 7.0962 7.76562 7.43437L9.03125 12.5H45.3125C45.5498 12.5001 45.784 12.5542 45.9973 12.6583C46.2106 12.7624 46.3974 12.9137 46.5435 13.1007C46.6896 13.2878 46.7911 13.5057 46.8405 13.7378C46.8898 13.97 46.8856 14.2103 46.8281 14.4406L42.1406 33.1906C42.0563 33.5288 41.8613 33.8291 41.5867 34.0437C41.312 34.2583 40.9735 34.3749 40.625 34.375H12.5C12.1515 34.3749 11.813 34.2583 11.5383 34.0437C11.2637 33.8291 11.0687 33.5288 10.9844 33.1906L5.03125 9.375H1.5625C1.1481 9.375 0.750671 9.21038 0.457646 8.91735C0.16462 8.62433 0 8.2269 0 7.8125ZM9.8125 15.625L13.7188 31.25H39.4062L43.3125 15.625H9.8125ZM15.625 40.625C14.7962 40.625 14.0013 40.9542 13.4153 41.5403C12.8292 42.1263 12.5 42.9212 12.5 43.75C12.5 44.5788 12.8292 45.3737 13.4153 45.9597C14.0013 46.5458 14.7962 46.875 15.625 46.875C16.4538 46.875 17.2487 46.5458 17.8347 45.9597C18.4208 45.3737 18.75 44.5788 18.75 43.75C18.75 42.9212 18.4208 42.1263 17.8347 41.5403C17.2487 40.9542 16.4538 40.625 15.625 40.625ZM9.375 43.75C9.375 42.0924 10.0335 40.5027 11.2056 39.3306C12.3777 38.1585 13.9674 37.5 15.625 37.5C17.2826 37.5 18.8723 38.1585 20.0444 39.3306C21.2165 40.5027 21.875 42.0924 21.875 43.75C21.875 45.4076 21.2165 46.9973 20.0444 48.1694C18.8723 49.3415 17.2826 50 15.625 50C13.9674 50 12.3777 49.3415 11.2056 48.1694C10.0335 46.9973 9.375 45.4076 9.375 43.75ZM37.5 40.625C36.6712 40.625 35.8763 40.9542 35.2903 41.5403C34.7042 42.1263 34.375 42.9212 34.375 43.75C34.375 44.5788 34.7042 45.3737 35.2903 45.9597C35.8763 46.5458 36.6712 46.875 37.5 46.875C38.3288 46.875 39.1237 46.5458 39.7097 45.9597C40.2958 45.3737 40.625 44.5788 40.625 43.75C40.625 42.9212 40.2958 42.1263 39.7097 41.5403C39.1237 40.9542 38.3288 40.625 37.5 40.625ZM31.25 43.75C31.25 42.0924 31.9085 40.5027 33.0806 39.3306C34.2527 38.1585 35.8424 37.5 37.5 37.5C39.1576 37.5 40.7473 38.1585 41.9194 39.3306C43.0915 40.5027 43.75 42.0924 43.75 43.75C43.75 45.4076 43.0915 46.9973 41.9194 48.1694C40.7473 49.3415 39.1576 50 37.5 50C35.8424 50 34.2527 49.3415 33.0806 48.1694C31.9085 46.9973 31.25 45.4076 31.25 43.75Z" fill="#2B292E"/>
</svg>
