<svg width="50" height="50" viewBox="0 0 50 50" fill="none" xmlns="http://www.w3.org/2000/svg">
<path d="M8.33333 16.6667C9.48393 16.6667 10.4167 15.7339 10.4167 14.5833C10.4167 13.4327 9.48393 12.5 8.33333 12.5C7.18274 12.5 6.25 13.4327 6.25 14.5833C6.25 15.7339 7.18274 16.6667 8.33333 16.6667Z" fill="#2B292E"/>
<path d="M8.33333 27.0833C9.48393 27.0833 10.4167 26.1506 10.4167 25C10.4167 23.8494 9.48393 22.9166 8.33333 22.9166C7.18274 22.9166 6.25 23.8494 6.25 25C6.25 26.1506 7.18274 27.0833 8.33333 27.0833Z" fill="#2B292E"/>
<path d="M8.33333 37.5C9.48393 37.5 10.4167 36.5673 10.4167 35.4167C10.4167 34.2661 9.48393 33.3334 8.33333 33.3334C7.18274 33.3334 6.25 34.2661 6.25 35.4167C6.25 36.5673 7.18274 37.5 8.33333 37.5Z" fill="#2B292E"/>
<path d="M41.7916 22.9166H16.5416C15.4601 22.9166 14.5833 23.7934 14.5833 24.875V25.125C14.5833 26.2065 15.4601 27.0833 16.5416 27.0833H41.7916C42.8732 27.0833 43.75 26.2065 43.75 25.125V24.875C43.75 23.7934 42.8732 22.9166 41.7916 22.9166Z" fill="#2B292E"/>
<path d="M41.7916 33.3334H16.5416C15.4601 33.3334 14.5833 34.2102 14.5833 35.2917V35.5417C14.5833 36.6233 15.4601 37.5 16.5416 37.5H41.7916C42.8732 37.5 43.75 36.6233 43.75 35.5417V35.2917C43.75 34.2102 42.8732 33.3334 41.7916 33.3334Z" fill="#2B292E"/>
<path d="M41.7916 12.5H16.5416C15.4601 12.5 14.5833 13.3768 14.5833 14.4583V14.7083C14.5833 15.7899 15.4601 16.6667 16.5416 16.6667H41.7916C42.8732 16.6667 43.75 15.7899 43.75 14.7083V14.4583C43.75 13.3768 42.8732 12.5 41.7916 12.5Z" fill="#2B292E"/>
</svg>
