<svg width="50" height="50" viewBox="0 0 50 50" fill="none" xmlns="http://www.w3.org/2000/svg">
<path d="M41.6667 4.16663H20.8334C18.5354 4.16663 16.6667 6.03538 16.6667 8.33329V16.6666H8.33335C6.03544 16.6666 4.16669 18.5354 4.16669 20.8333V41.6666C4.16669 43.9645 6.03544 45.8333 8.33335 45.8333H29.1667C31.4646 45.8333 33.3334 43.9645 33.3334 41.6666V33.3333H41.6667C43.9646 33.3333 45.8334 31.4645 45.8334 29.1666V8.33329C45.8334 6.03538 43.9646 4.16663 41.6667 4.16663ZM8.33335 41.6666V20.8333H29.1667L29.1709 41.6666H8.33335ZM41.6667 29.1666H33.3334V20.8333C33.3334 18.5354 31.4646 16.6666 29.1667 16.6666H20.8334V8.33329H41.6667V29.1666Z" fill="#2B292E"/>
<path d="M12.5 25H25V29.1667H12.5V25ZM12.5 33.3333H25V37.5H12.5V33.3333Z" fill="#2B292E"/>
</svg>
