<svg width="50" height="50" viewBox="0 0 50 50" fill="none" xmlns="http://www.w3.org/2000/svg">
<path fill-rule="evenodd" clip-rule="evenodd" d="M33.3333 21.6666C33.3333 23.1987 33.0316 24.7158 32.4453 26.1313C31.859 27.5467 30.9996 28.8329 29.9163 29.9162C28.8329 30.9996 27.5468 31.8589 26.1313 32.4452C24.7159 33.0315 23.1988 33.3333 21.6667 33.3333C20.1346 33.3333 18.6175 33.0315 17.202 32.4452C15.7866 31.8589 14.5004 30.9996 13.4171 29.9162C12.3337 28.8329 11.4744 27.5467 10.8881 26.1313C10.3018 24.7158 10 23.1987 10 21.6666C10 18.5725 11.2292 15.605 13.4171 13.4171C15.605 11.2291 18.5725 9.99998 21.6667 9.99998C24.7609 9.99998 27.7283 11.2291 29.9163 13.4171C32.1042 15.605 33.3333 18.5725 33.3333 21.6666ZM31.03 33.3866C28.0347 35.7796 24.2369 36.9348 20.4165 36.6151C16.596 36.2954 13.043 34.525 10.4871 31.6675C7.93126 28.8099 6.56652 25.0823 6.6732 21.25C6.77989 17.4177 8.3499 13.7717 11.0608 11.0608C13.7717 8.34987 17.4177 6.77986 21.25 6.67317C25.0823 6.56649 28.81 7.93123 31.6675 10.4871C34.525 13.043 36.2954 16.596 36.6151 20.4164C36.9349 24.2369 35.7796 28.0347 33.3867 31.03L42.8467 40.4866C43.0016 40.6416 43.1246 40.8256 43.2084 41.028C43.2923 41.2305 43.3354 41.4475 43.3354 41.6666C43.3354 41.8858 43.2923 42.1028 43.2084 42.3053C43.1246 42.5077 43.0016 42.6917 42.8467 42.8466C42.6917 43.0016 42.5078 43.1245 42.3053 43.2084C42.1028 43.2923 41.8858 43.3354 41.6667 43.3354C41.4475 43.3354 41.2305 43.2923 41.0281 43.2084C40.8256 43.1245 40.6416 43.0016 40.4867 42.8466L31.0333 33.3866H31.03Z" fill="#8549DA"/>
</svg>
