<svg width="50" height="50" viewBox="0 0 50 50" fill="none" xmlns="http://www.w3.org/2000/svg">
<path d="M25 29.1667L18.75 22.9167" stroke="#2B292E" stroke-width="4.16667" stroke-linecap="round" stroke-linejoin="round"/>
<path d="M25 29.1667L31.25 22.9167" stroke="#2B292E" stroke-width="4.16667" stroke-linecap="round"/>
<path d="M25 43.75C22.5377 43.75 20.0995 43.265 17.8247 42.3227C15.5498 41.3805 13.4828 39.9994 11.7417 38.2583C10.0006 36.5172 8.61953 34.4502 7.67726 32.1753C6.73498 29.9005 6.25 27.4623 6.25 25C6.25 22.5377 6.73498 20.0995 7.67726 17.8247C8.61953 15.5498 10.0006 13.4828 11.7417 11.7418C13.4828 10.0007 15.5498 8.61953 17.8247 7.67726C20.0995 6.73498 22.5377 6.25 25 6.25C29.9728 6.25 34.7419 8.22544 38.2582 11.7418C41.7746 15.2581 43.75 20.0272 43.75 25C43.75 29.9728 41.7746 34.7419 38.2582 38.2583C34.7419 41.7746 29.9728 43.75 25 43.75V43.75Z" stroke="#2B292E" stroke-width="4.16667" stroke-linecap="round"/>
</svg>
