<svg width="50" height="50" viewBox="0 0 50 50" fill="none" xmlns="http://www.w3.org/2000/svg">
<path d="M30.7042 16.6083L11.875 35.4375L10.6438 39.6375L14.7583 38.4479L33.65 19.5562L30.7042 16.6083ZM33.9167 13.3958L36.8625 16.3416L39.6083 13.5958C39.8036 13.4005 39.9133 13.1356 39.9133 12.8593C39.9133 12.5831 39.8036 12.3182 39.6083 12.1229L38.1333 10.65C37.938 10.4547 37.6731 10.345 37.3969 10.345C37.1207 10.345 36.8558 10.4547 36.6604 10.65L33.9188 13.3958H33.9167ZM41.0813 7.70414L42.5542 9.17705C43.5306 10.1538 44.0791 11.4783 44.0791 12.8593C44.0791 14.2404 43.5306 15.5649 42.5542 16.5416L16.9458 42.1521L8.15417 44.6937C7.79581 44.797 7.41629 44.8023 7.05522 44.7089C6.69415 44.6155 6.36478 44.4268 6.10149 44.1627C5.83819 43.8985 5.65063 43.5686 5.55839 43.2072C5.46615 42.8458 5.47261 42.4663 5.57709 42.1083L8.17709 33.2437L33.7188 7.70205C34.6955 6.72564 36.02 6.17712 37.401 6.17712C38.7821 6.17712 40.1066 6.72564 41.0833 7.70205L41.0813 7.70414Z" fill="#2B292E"/>
</svg>
