<svg width="50" height="50" viewBox="0 0 50 50" fill="none" xmlns="http://www.w3.org/2000/svg">
<path d="M12.3333 8.33335C11.2283 8.33335 10.1685 8.77234 9.38705 9.55374C8.60565 10.3351 8.16667 11.395 8.16667 12.5V37.5C8.16667 38.6051 8.60565 39.6649 9.38705 40.4463C10.1685 41.2277 11.2283 41.6667 12.3333 41.6667H37.3333C38.4384 41.6667 39.4982 41.2277 40.2796 40.4463C41.061 39.6649 41.5 38.6051 41.5 37.5V12.5C41.5 11.395 41.061 10.3351 40.2796 9.55374C39.4982 8.77234 38.4384 8.33335 37.3333 8.33335H12.3333ZM12.3333 4.16669H37.3333C39.5435 4.16669 41.6631 5.04466 43.2259 6.60746C44.7887 8.17027 45.6667 10.2899 45.6667 12.5V37.5C45.6667 39.7102 44.7887 41.8298 43.2259 43.3926C41.6631 44.9554 39.5435 45.8334 37.3333 45.8334H12.3333C10.1232 45.8334 8.00358 44.9554 6.44078 43.3926C4.87797 41.8298 4 39.7102 4 37.5V12.5C4 10.2899 4.87797 8.17027 6.44078 6.60746C8.00358 5.04466 10.1232 4.16669 12.3333 4.16669Z" fill="black"/>
<path d="M24.0729 34.6459V15.8734L20.4537 19.4911C20.1845 19.7511 19.824 19.895 19.4498 19.8917C19.0756 19.8885 18.7177 19.7384 18.4531 19.4738C18.1885 19.2092 18.0384 18.8512 18.0351 18.477C18.0319 18.1028 18.1757 17.7423 18.4357 17.4732L24.491 11.4178C24.7586 11.1503 25.1216 11 25.5 11C25.8784 11 26.2414 11.1503 26.509 11.4178L32.5643 17.4732C32.7006 17.6048 32.8093 17.7623 32.8841 17.9364C32.9589 18.1105 32.9983 18.2978 32.9999 18.4873C33.0016 18.6768 32.9655 18.8647 32.8937 19.0401C32.822 19.2155 32.716 19.3748 32.582 19.5088C32.448 19.6428 32.2887 19.7488 32.1133 19.8206C31.9379 19.8923 31.75 19.9284 31.5605 19.9268C31.371 19.9251 31.1837 19.8858 31.0096 19.811C30.8355 19.7362 30.678 19.6274 30.5463 19.4911L26.9271 15.8748V34.6473L30.5463 31.0281C30.678 30.8918 30.8355 30.7831 31.0096 30.7083C31.1837 30.6335 31.371 30.5941 31.5605 30.5925C31.75 30.5908 31.9379 30.6269 32.1133 30.6987C32.2887 30.7704 32.448 30.8764 32.582 31.0104C32.716 31.1444 32.822 31.3037 32.8937 31.4791C32.9655 31.6545 33.0016 31.8424 32.9999 32.0319C32.9983 32.2214 32.9589 32.4087 32.8841 32.5828C32.8093 32.7569 32.7006 32.9144 32.5643 33.0461L26.509 39.1014C26.3768 39.2344 26.2195 39.3399 26.0464 39.4119C25.8732 39.4839 25.6875 39.521 25.5 39.521C25.3125 39.521 25.1268 39.4839 24.9536 39.4119C24.7805 39.3399 24.6232 39.2344 24.491 39.1014L18.4357 33.0446C18.2994 32.913 18.1907 32.7555 18.1159 32.5814C18.0411 32.4073 18.0017 32.22 18.0001 32.0305C17.9984 31.841 18.0345 31.6531 18.1063 31.4777C18.178 31.3023 18.284 31.143 18.418 31.009C18.552 30.875 18.7113 30.769 18.8867 30.6973C19.0621 30.6255 19.25 30.5894 19.4395 30.591C19.629 30.5927 19.8163 30.632 19.9904 30.7068C20.1645 30.7816 20.322 30.8904 20.4537 31.0267L24.0729 34.6459Z" fill="black" stroke="black"/>
</svg>
