<svg width="50" height="50" viewBox="0 0 50 50" fill="none" xmlns="http://www.w3.org/2000/svg">
<path d="M25 50C31.901 50 37.793 47.5586 42.6758 42.6758C47.5586 37.793 50 31.901 50 25C50 18.099 47.5586 12.207 42.6758 7.32422C37.793 2.44141 31.901 0 25 0C18.099 0 12.207 2.44141 7.32422 7.32422C2.44141 12.207 0 18.099 0 25C0 31.901 2.44141 37.793 7.32422 42.6758C12.207 47.5586 18.099 50 25 50ZM25 4.19922C30.7292 4.19922 35.6283 6.23372 39.6973 10.3027C43.7663 14.3717 45.8008 19.2708 45.8008 25C45.8008 30.7292 43.7663 35.6283 39.6973 39.6973C35.6283 43.7663 30.7292 45.8008 25 45.8008C19.2708 45.8008 14.3717 43.7663 10.3027 39.6973C6.23372 35.6283 4.19922 30.7292 4.19922 25C4.19922 19.2708 6.23372 14.3717 10.3027 10.3027C14.3717 6.23372 19.2708 4.19922 25 4.19922ZM23.7305 34.9609L23.9258 35.2539H26.0742C26.2044 35.2539 26.2695 35.1562 26.2695 34.9609L32.5195 30.8594C33.6263 30.0781 33.8216 29.1016 33.1055 27.9297C32.4544 26.7578 31.4779 26.5299 30.1758 27.2461L27.2461 29.3945V16.6992C27.2461 15.2669 26.5625 14.5508 25.1953 14.5508C23.8281 14.5508 23.1445 15.2669 23.1445 16.6992V29.3945L20.2148 27.2461C18.9128 26.5299 17.9362 26.7578 17.2852 27.9297C16.6341 29.1667 16.8294 30.1432 17.8711 30.8594L23.7305 34.9609Z" fill="#2B292E"/>
</svg>
