<svg width="50" height="50" viewBox="0 0 50 50" fill="none" xmlns="http://www.w3.org/2000/svg">
<path d="M8.50001 8.33329L22.0042 25.2104C22.5953 25.9496 22.9171 26.868 22.9167 27.8145V41.6666L27.0833 38.5416V27.8125C27.0834 26.8667 27.4052 25.949 27.9958 25.2104L41.5 8.33329H8.50209H8.50001ZM8.50001 4.16663H41.5C42.285 4.16672 43.0539 4.38855 43.7183 4.80655C44.3827 5.22456 44.9155 5.82174 45.2554 6.52931C45.5952 7.23688 45.7283 8.02605 45.6393 8.80594C45.5502 9.58583 45.2427 10.3247 44.7521 10.9375L31.25 27.8125V38.5416C31.25 39.1885 31.0994 39.8265 30.8101 40.405C30.5208 40.9836 30.1008 41.4868 29.5833 41.875L25.4167 45C24.7976 45.4642 24.0615 45.747 23.2909 45.8165C22.5202 45.8859 21.7454 45.7395 21.0533 45.3934C20.3612 45.0474 19.7791 44.5154 19.3723 43.8572C18.9655 43.1989 18.75 42.4404 18.75 41.6666V27.8125L5.24793 10.9375C4.75733 10.3247 4.4498 9.58583 4.36076 8.80594C4.27172 8.02605 4.40478 7.23688 4.74464 6.52931C5.08449 5.82174 5.6173 5.22456 6.2817 4.80655C6.9461 4.38855 7.71506 4.16672 8.50001 4.16663Z" fill="#2B292E"/>
</svg>
