<svg width="50" height="50" viewBox="0 0 50 50" fill="none" xmlns="http://www.w3.org/2000/svg">
<path d="M24.8333 8.16667C20.4131 8.16667 16.1738 9.92261 13.0482 13.0482C9.92261 16.1738 8.16667 20.4131 8.16667 24.8333C8.16667 29.2536 9.92261 33.4928 13.0482 36.6184C16.1738 39.7441 20.4131 41.5 24.8333 41.5C29.2536 41.5 33.4928 39.7441 36.6184 36.6184C39.7441 33.4928 41.5 29.2536 41.5 24.8333C41.5 20.4131 39.7441 16.1738 36.6184 13.0482C33.4928 9.92261 29.2536 8.16667 24.8333 8.16667V8.16667ZM4 24.8333C4 13.3271 13.3271 4 24.8333 4C36.3396 4 45.6667 13.3271 45.6667 24.8333C45.6667 36.3396 36.3396 45.6667 24.8333 45.6667C13.3271 45.6667 4 36.3396 4 24.8333Z" fill="black"/>
<path d="M32.5562 19.1938C32.9468 19.5845 33.1662 20.1143 33.1662 20.6667C33.1662 21.2191 32.9468 21.7489 32.5562 22.1396L24.2229 30.4729C23.8322 30.8635 23.3024 31.0829 22.75 31.0829C22.1976 31.0829 21.6678 30.8635 21.2771 30.4729L17.1104 26.3063C16.9114 26.1141 16.7527 25.8842 16.6435 25.63C16.5343 25.3759 16.4769 25.1025 16.4745 24.8259C16.4721 24.5492 16.5248 24.2749 16.6295 24.0189C16.7343 23.7628 16.889 23.5302 17.0846 23.3346C17.2802 23.139 17.5128 22.9843 17.7688 22.8796C18.0249 22.7748 18.2992 22.7221 18.5758 22.7245C18.8525 22.7269 19.1258 22.7844 19.38 22.8936C19.6342 23.0027 19.8641 23.1615 20.0562 23.3604L22.75 26.0542L29.6104 19.1938C30.0011 18.8032 30.5309 18.5838 31.0833 18.5838C31.6358 18.5838 32.1656 18.8032 32.5562 19.1938V19.1938Z" fill="black"/>
</svg>
