<svg width="50" height="50" viewBox="0 0 50 50" fill="none" xmlns="http://www.w3.org/2000/svg">
<path d="M31.25 43.75H35.4167V39.5834H31.25V43.75ZM39.5833 18.75H43.75V14.5834H39.5833V18.75ZM6.25 10.4167V39.5834C6.25 41.875 8.125 43.75 10.4167 43.75H18.75V39.5834H10.4167V10.4167H18.75V6.25004H10.4167C8.125 6.25004 6.25 8.12504 6.25 10.4167ZM39.5833 6.25004V10.4167H43.75C43.75 8.12504 41.875 6.25004 39.5833 6.25004ZM22.9167 47.9167H27.0833V2.08337H22.9167V47.9167ZM39.5833 35.4167H43.75V31.25H39.5833V35.4167ZM31.25 10.4167H35.4167V6.25004H31.25V10.4167ZM39.5833 27.0834H43.75V22.9167H39.5833V27.0834ZM39.5833 43.75C41.875 43.75 43.75 41.875 43.75 39.5834H39.5833V43.75Z" fill="#2B292E"/>
</svg>
