<svg width="50" height="50" viewBox="0 0 50 50" fill="none" xmlns="http://www.w3.org/2000/svg">
<path d="M6.25 14.5833V35.4166C6.25 36.5217 6.68899 37.5815 7.47039 38.3629C8.25179 39.1443 9.3116 39.5833 10.4167 39.5833H39.5833C40.6884 39.5833 41.7482 39.1443 42.5296 38.3629C43.311 37.5815 43.75 36.5217 43.75 35.4166V18.75C43.75 17.6449 43.311 16.5851 42.5296 15.8037C41.7482 15.0223 40.6884 14.5833 39.5833 14.5833H27.0833L22.9167 10.4166H10.4167C9.3116 10.4166 8.25179 10.8556 7.47039 11.637C6.68899 12.4184 6.25 13.4782 6.25 14.5833V14.5833Z" stroke="#2B292E" stroke-width="4.16667" stroke-linecap="round" stroke-linejoin="round"/>
</svg>
