<svg width="50" height="50" viewBox="0 0 50 50" fill="none" xmlns="http://www.w3.org/2000/svg">
<path d="M46.2158 24.6582L27.3486 5.80078L26.084 4.53613C25.7958 4.24989 25.4062 4.08923 25 4.08923C24.5938 4.08923 24.2042 4.24989 23.916 4.53613L3.78417 24.6582C3.48891 24.9523 3.25556 25.3026 3.0979 25.6884C2.94024 26.0741 2.86145 26.4876 2.8662 26.9043C2.88573 28.623 4.31639 29.9951 6.03515 29.9951H8.11034V45.8984H41.8896V29.9951H44.0088C44.8437 29.9951 45.6299 29.668 46.2207 29.0771C46.5116 28.7872 46.7421 28.4424 46.8988 28.0627C47.0556 27.683 47.1354 27.276 47.1338 26.8652C47.1338 26.0352 46.8066 25.249 46.2158 24.6582ZM27.7344 42.3828H22.2656V32.4219H27.7344V42.3828ZM38.374 26.4795V42.3828H30.8594V31.25C30.8594 30.1709 29.9853 29.2969 28.9062 29.2969H21.0937C20.0146 29.2969 19.1406 30.1709 19.1406 31.25V42.3828H11.626V26.4795H6.93847L25.0049 8.42774L26.1328 9.55567L43.0664 26.4795H38.374Z" fill="#2B292E"/>
</svg>
