<svg width="50" height="50" viewBox="0 0 50 50" fill="none" xmlns="http://www.w3.org/2000/svg">
<path d="M38.3333 11.6667L36.875 13.125M6.25 25H8.33333H6.25ZM25 6.25V8.33333V6.25ZM41.6667 25H43.75H41.6667ZM11.6667 11.6667L13.125 13.125L11.6667 11.6667Z" stroke="#F3EE66" stroke-width="4.16667" stroke-linecap="round" stroke-linejoin="round"/>
<path d="M18.75 33.3334C17.001 32.0216 15.709 30.1928 15.0572 28.106C14.4053 26.0191 14.4265 23.7801 15.1179 21.706C15.8093 19.6319 17.1357 17.8279 18.9093 16.5496C20.6829 15.2713 22.8137 14.5834 25 14.5834C27.1863 14.5834 29.3171 15.2713 31.0907 16.5496C32.8643 17.8279 34.1908 19.6319 34.8821 21.706C35.5735 23.7801 35.5947 26.0191 34.9429 28.106C34.291 30.1928 32.999 32.0216 31.25 33.3334C30.4366 34.1385 29.8242 35.1239 29.4622 36.2097C29.1003 37.2955 28.9991 38.4512 29.1667 39.5834C29.1667 40.6884 28.7277 41.7482 27.9463 42.5297C27.1649 43.3111 26.1051 43.75 25 43.75C23.8949 43.75 22.8351 43.3111 22.0537 42.5297C21.2723 41.7482 20.8333 40.6884 20.8333 39.5834C21.001 38.4512 20.8997 37.2955 20.5378 36.2097C20.1758 35.1239 19.5634 34.1385 18.75 33.3334" stroke="#F3EE66" stroke-width="4.16667" stroke-linecap="round" stroke-linejoin="round"/>
<path d="M20.2083 35.4166H29.7917" stroke="#F3EE66" stroke-width="4.16667" stroke-linecap="round" stroke-linejoin="round"/>
</svg>
