<svg width="50" height="50" viewBox="0 0 50 50" fill="none" xmlns="http://www.w3.org/2000/svg">
<path d="M12.5 4.16669H37.5C39.7101 4.16669 41.8298 5.04466 43.3926 6.60746C44.9554 8.17027 45.8333 10.2899 45.8333 12.5V37.5C45.8333 39.7102 44.9554 41.8298 43.3926 43.3926C41.8298 44.9554 39.7101 45.8334 37.5 45.8334H12.5C10.2899 45.8334 8.17025 44.9554 6.60745 43.3926C5.04465 41.8298 4.16667 39.7102 4.16667 37.5V12.5C4.16667 10.2899 5.04465 8.17027 6.60745 6.60746C8.17025 5.04466 10.2899 4.16669 12.5 4.16669ZM12.5 8.33335C11.3949 8.33335 10.3351 8.77234 9.55373 9.55374C8.77232 10.3351 8.33334 11.395 8.33334 12.5V37.5C8.33334 38.6051 8.77232 39.6649 9.55373 40.4463C10.3351 41.2277 11.3949 41.6667 12.5 41.6667H37.5C38.6051 41.6667 39.6649 41.2277 40.4463 40.4463C41.2277 39.6649 41.6667 38.6051 41.6667 37.5V12.5C41.6667 11.395 41.2277 10.3351 40.4463 9.55374C39.6649 8.77234 38.6051 8.33335 37.5 8.33335H12.5Z" fill="black"/>
</svg>
