<svg width="50" height="50" viewBox="0 0 50 50" fill="none" xmlns="http://www.w3.org/2000/svg">
<path d="M25 4.16663C13.5417 4.16663 4.16669 13.5416 4.16669 25C4.16669 36.4583 13.5417 45.8333 25 45.8333C36.4584 45.8333 45.8334 36.4583 45.8334 25C45.8334 13.5416 36.4584 4.16663 25 4.16663ZM25 41.6666C15.8125 41.6666 8.33335 34.1875 8.33335 25C8.33335 15.8125 15.8125 8.33329 25 8.33329C34.1875 8.33329 41.6667 15.8125 41.6667 25C41.6667 34.1875 34.1875 41.6666 25 41.6666ZM26.0417 14.5833H22.9167V27.0833L33.75 33.75L35.4167 31.0416L26.0417 25.4166V14.5833Z" fill="#2B292E"/>
</svg>
