<svg width="50" height="50" viewBox="0 0 50 50" fill="none" xmlns="http://www.w3.org/2000/svg">
<path fill-rule="evenodd" clip-rule="evenodd" d="M15.625 7.8125L17.1875 6.25H23.4375L25 7.8125V42.1875L23.4375 43.75H17.1875L15.625 42.1875V7.8125ZM18.75 9.375V40.625H21.875V9.375H18.75ZM28.6594 10.4531L29.5938 8.45L35.4688 6.3125L37.4688 7.24688L49.225 39.5469L48.2906 41.55L42.4188 43.6875L40.4188 42.7531L28.6562 10.4531H28.6594ZM32.1281 10.8531L42.8156 40.2156L45.7531 39.15L35.0656 9.78438L32.1281 10.8531ZM3.125 7.8125L4.6875 6.25H10.9375L12.5 7.8125V42.1875L10.9375 43.75H4.6875L3.125 42.1875V7.8125ZM6.25 9.375V40.625H9.375V9.375H6.25Z" fill="#2B292E"/>
</svg>
