<svg width="50" height="50" viewBox="0 0 50 50" fill="none" xmlns="http://www.w3.org/2000/svg">
<path d="M45.0684 13.8477C44.4139 12.3322 43.4701 10.959 42.29 9.80472C41.109 8.64704 39.7166 7.72704 38.1885 7.09476C36.6039 6.43652 34.9043 6.0996 33.1885 6.10355C30.7812 6.10355 28.4326 6.76273 26.3916 8.00785C25.9033 8.3057 25.4395 8.63285 25 8.98929C24.5605 8.63285 24.0967 8.3057 23.6084 8.00785C21.5674 6.76273 19.2187 6.10355 16.8115 6.10355C15.0781 6.10355 13.3984 6.43558 11.8115 7.09476C10.2783 7.72953 8.89648 8.64261 7.70996 9.80472C6.5283 10.9577 5.58436 12.3313 4.93164 13.8477C4.25293 15.4248 3.90625 17.0996 3.90625 18.8233C3.90625 20.4493 4.23828 22.1436 4.89746 23.8672C5.44922 25.3077 6.24023 26.8018 7.25098 28.3106C8.85254 30.6983 11.0547 33.1885 13.7891 35.7129C18.3203 39.8975 22.8076 42.7881 22.998 42.9053L24.1553 43.6475C24.668 43.9746 25.3271 43.9746 25.8398 43.6475L26.9971 42.9053C27.1875 42.7832 31.6699 39.8975 36.2061 35.7129C38.9404 33.1885 41.1426 30.6983 42.7441 28.3106C43.7549 26.8018 44.5508 25.3077 45.0977 23.8672C45.7568 22.1436 46.0889 20.4493 46.0889 18.8233C46.0938 17.0996 45.7471 15.4248 45.0684 13.8477ZM25 39.7852C25 39.7852 7.61719 28.6475 7.61719 18.8233C7.61719 13.8477 11.7334 9.81449 16.8115 9.81449C20.3809 9.81449 23.4766 11.8067 25 14.7168C26.5234 11.8067 29.6191 9.81449 33.1885 9.81449C38.2666 9.81449 42.3828 13.8477 42.3828 18.8233C42.3828 28.6475 25 39.7852 25 39.7852Z" fill="#2B292E"/>
</svg>
