<svg width="50" height="50" viewBox="0 0 50 50" fill="none" xmlns="http://www.w3.org/2000/svg">
<path d="M41.7708 22.9166H8.22917C7.1361 22.9166 6.25 23.8027 6.25 24.8958V25.1041C6.25 26.1972 7.1361 27.0833 8.22917 27.0833H41.7708C42.8639 27.0833 43.75 26.1972 43.75 25.1041V24.8958C43.75 23.8027 42.8639 22.9166 41.7708 22.9166Z" fill="#2B292E"/>
<path d="M41.7708 33.3334H8.22917C7.1361 33.3334 6.25 34.2195 6.25 35.3125V35.5209C6.25 36.6139 7.1361 37.5 8.22917 37.5H41.7708C42.8639 37.5 43.75 36.6139 43.75 35.5209V35.3125C43.75 34.2195 42.8639 33.3334 41.7708 33.3334Z" fill="#2B292E"/>
<path d="M41.7708 12.5H8.22917C7.1361 12.5 6.25 13.3861 6.25 14.4792V14.6875C6.25 15.7806 7.1361 16.6667 8.22917 16.6667H41.7708C42.8639 16.6667 43.75 15.7806 43.75 14.6875V14.4792C43.75 13.3861 42.8639 12.5 41.7708 12.5Z" fill="#2B292E"/>
</svg>
