<svg width="50" height="50" viewBox="0 0 50 50" fill="none" xmlns="http://www.w3.org/2000/svg">
<path d="M37.5 6.25C39.1576 6.25 40.7473 6.90848 41.9194 8.08058C43.0915 9.25269 43.75 10.8424 43.75 12.5C43.75 14.1576 43.0915 15.7473 41.9194 16.9194C40.7473 18.0915 39.1576 18.75 37.5 18.75H31.25C29.9573 18.7502 28.6964 18.3497 27.6408 17.6034C26.5853 16.8572 25.7871 15.8021 25.3562 14.5833H22.9167C20.625 14.5833 18.75 16.4583 18.75 18.75V19.1062C19.9694 19.5366 21.0252 20.3345 21.7721 21.3901C22.519 22.4457 22.92 23.7069 22.92 25C22.92 26.2931 22.519 27.5543 21.7721 28.6099C21.0252 29.6655 19.9694 30.4634 18.75 30.8937V31.25C18.75 33.5417 20.625 35.4167 22.9167 35.4167H25.3542C25.786 34.1981 26.5847 33.1432 27.6404 32.3971C28.6962 31.651 29.9572 31.2502 31.25 31.25H37.5C39.1576 31.25 40.7473 31.9085 41.9194 33.0806C43.0915 34.2527 43.75 35.8424 43.75 37.5C43.75 39.1576 43.0915 40.7473 41.9194 41.9194C40.7473 43.0915 39.1576 43.75 37.5 43.75H31.25C29.9573 43.7502 28.6964 43.3497 27.6408 42.6034C26.5853 41.8572 25.7871 40.8021 25.3562 39.5833H22.9167C18.3125 39.5833 14.5833 35.8542 14.5833 31.25H10.4167C8.75905 31.25 7.16934 30.5915 5.99724 29.4194C4.82514 28.2473 4.16666 26.6576 4.16666 25C4.16666 23.3424 4.82514 21.7527 5.99724 20.5806C7.16934 19.4085 8.75905 18.75 10.4167 18.75H14.5833C14.5833 14.1458 18.3125 10.4167 22.9167 10.4167H25.3542C25.786 9.1981 26.5847 8.14322 27.6404 7.3971C28.6962 6.65097 29.9572 6.25024 31.25 6.25H37.5ZM37.5 35.4167H31.25C30.6975 35.4167 30.1676 35.6362 29.7768 36.0269C29.3861 36.4176 29.1667 36.9475 29.1667 37.5C29.1667 38.0525 29.3861 38.5824 29.7768 38.9731C30.1676 39.3638 30.6975 39.5833 31.25 39.5833H37.5C38.0525 39.5833 38.5824 39.3638 38.9731 38.9731C39.3638 38.5824 39.5833 38.0525 39.5833 37.5C39.5833 36.9475 39.3638 36.4176 38.9731 36.0269C38.5824 35.6362 38.0525 35.4167 37.5 35.4167ZM16.6667 22.9167H10.4167C9.86412 22.9167 9.33422 23.1362 8.94352 23.5269C8.55282 23.9176 8.33332 24.4475 8.33332 25C8.33332 25.5525 8.55282 26.0824 8.94352 26.4731C9.33422 26.8638 9.86412 27.0833 10.4167 27.0833H16.6667C17.2192 27.0833 17.7491 26.8638 18.1398 26.4731C18.5305 26.0824 18.75 25.5525 18.75 25C18.75 24.4475 18.5305 23.9176 18.1398 23.5269C17.7491 23.1362 17.2192 22.9167 16.6667 22.9167ZM37.5 10.4167H31.25C30.6975 10.4167 30.1676 10.6362 29.7768 11.0269C29.3861 11.4176 29.1667 11.9475 29.1667 12.5C29.1667 13.0525 29.3861 13.5824 29.7768 13.9731C30.1676 14.3638 30.6975 14.5833 31.25 14.5833H37.5C38.0525 14.5833 38.5824 14.3638 38.9731 13.9731C39.3638 13.5824 39.5833 13.0525 39.5833 12.5C39.5833 11.9475 39.3638 11.4176 38.9731 11.0269C38.5824 10.6362 38.0525 10.4167 37.5 10.4167Z" fill="#2B292E"/>
</svg>
