<svg width="50" height="50" viewBox="0 0 50 50" fill="none" xmlns="http://www.w3.org/2000/svg">
<path d="M12.5 8.33335C11.3949 8.33335 10.3351 8.77234 9.55371 9.55374C8.77231 10.3351 8.33332 11.395 8.33332 12.5V37.5C8.33332 38.6051 8.77231 39.6649 9.55371 40.4463C10.3351 41.2277 11.3949 41.6667 12.5 41.6667H37.5C38.6051 41.6667 39.6649 41.2277 40.4463 40.4463C41.2277 39.6649 41.6667 38.6051 41.6667 37.5V12.5C41.6667 11.395 41.2277 10.3351 40.4463 9.55374C39.6649 8.77234 38.6051 8.33335 37.5 8.33335H12.5ZM12.5 4.16669H37.5C39.7101 4.16669 41.8297 5.04466 43.3925 6.60746C44.9553 8.17027 45.8333 10.2899 45.8333 12.5V37.5C45.8333 39.7102 44.9553 41.8298 43.3925 43.3926C41.8297 44.9554 39.7101 45.8334 37.5 45.8334H12.5C10.2899 45.8334 8.17024 44.9554 6.60743 43.3926C5.04463 41.8298 4.16666 39.7102 4.16666 37.5V12.5C4.16666 10.2899 5.04463 8.17027 6.60743 6.60746C8.17024 5.04466 10.2899 4.16669 12.5 4.16669ZM14.5833 22.9167H35.4167C35.9692 22.9167 36.4991 23.1362 36.8898 23.5269C37.2805 23.9176 37.5 24.4475 37.5 25C37.5 25.5526 37.2805 26.0825 36.8898 26.4732C36.4991 26.8639 35.9692 27.0834 35.4167 27.0834H14.5833C14.0308 27.0834 13.5009 26.8639 13.1102 26.4732C12.7195 26.0825 12.5 25.5526 12.5 25C12.5 24.4475 12.7195 23.9176 13.1102 23.5269C13.5009 23.1362 14.0308 22.9167 14.5833 22.9167Z" fill="black"/>
</svg>
