<svg width="50" height="50" viewBox="0 0 50 50" fill="none" xmlns="http://www.w3.org/2000/svg">
<path d="M38.6719 22.2168C37.9467 22.2168 37.2512 22.5049 36.7384 23.0177C36.2256 23.5305 35.9375 24.226 35.9375 24.9512C35.9375 25.6764 36.2256 26.3719 36.7384 26.8847C37.2512 27.3975 37.9467 27.6855 38.6719 27.6855C39.3971 27.6855 40.0926 27.3975 40.6054 26.8847C41.1182 26.3719 41.4063 25.6764 41.4063 24.9512C41.4063 24.226 41.1182 23.5305 40.6054 23.0177C40.0926 22.5049 39.3971 22.2168 38.6719 22.2168ZM25 22.2168C24.2748 22.2168 23.5793 22.5049 23.0665 23.0177C22.5537 23.5305 22.2657 24.226 22.2657 24.9512C22.2657 25.6764 22.5537 26.3719 23.0665 26.8847C23.5793 27.3975 24.2748 27.6855 25 27.6855C25.7252 27.6855 26.4207 27.3975 26.9335 26.8847C27.4463 26.3719 27.7344 25.6764 27.7344 24.9512C27.7344 24.226 27.4463 23.5305 26.9335 23.0177C26.4207 22.5049 25.7252 22.2168 25 22.2168ZM11.3282 22.2168C10.603 22.2168 9.90746 22.5049 9.39466 23.0177C8.88187 23.5305 8.59378 24.226 8.59378 24.9512C8.59378 25.6764 8.88187 26.3719 9.39466 26.8847C9.90746 27.3975 10.603 27.6855 11.3282 27.6855C12.0534 27.6855 12.7489 27.3975 13.2616 26.8847C13.7744 26.3719 14.0625 25.6764 14.0625 24.9512C14.0625 24.226 13.7744 23.5305 13.2617 23.0177C12.7489 22.5049 12.0534 22.2168 11.3282 22.2168Z" fill="#2B292E"/>
</svg>
