<svg width="50" height="50" viewBox="0 0 50 50" fill="none" xmlns="http://www.w3.org/2000/svg">
<path d="M19.3958 13.9792C19.2027 14.1719 19.0495 14.4009 18.9449 14.6529C18.8404 14.9049 18.7866 15.1751 18.7866 15.4479C18.7866 15.7208 18.8404 15.991 18.9449 16.243C19.0495 16.495 19.2027 16.724 19.3958 16.9167L27.4791 25L19.3958 33.0834C19.0063 33.4729 18.7874 34.0012 18.7874 34.5521C18.7874 35.103 19.0063 35.6313 19.3958 36.0209C19.7854 36.4104 20.3137 36.6292 20.8646 36.6292C21.4155 36.6292 21.9438 36.4104 22.3333 36.0209L31.8958 26.4584C32.089 26.2656 32.2422 26.0367 32.3467 25.7847C32.4513 25.5326 32.5051 25.2625 32.5051 24.9896C32.5051 24.7168 32.4513 24.4466 32.3467 24.1946C32.2422 23.9425 32.089 23.7136 31.8958 23.5209L22.3333 13.9584C21.5417 13.1667 20.2083 13.1667 19.3958 13.9792Z" fill="#2B292E"/>
</svg>
