<svg width="50" height="50" viewBox="0 0 50 50" fill="none" xmlns="http://www.w3.org/2000/svg">
<path d="M27.0833 29.1666H18.75C18.1975 29.1666 17.6676 29.3861 17.2769 29.7768C16.8862 30.1675 16.6667 30.6974 16.6667 31.25C16.6667 31.8025 16.8862 32.3324 17.2769 32.7231C17.6676 33.1138 18.1975 33.3333 18.75 33.3333H27.0833C27.6359 33.3333 28.1658 33.1138 28.5565 32.7231C28.9472 32.3324 29.1667 31.8025 29.1667 31.25C29.1667 30.6974 28.9472 30.1675 28.5565 29.7768C28.1658 29.3861 27.6359 29.1666 27.0833 29.1666ZM35.4167 8.33329H32.9583C32.5285 7.11756 31.7332 6.06454 30.6814 5.31858C29.6296 4.57262 28.3728 4.17025 27.0833 4.16663H22.9167C21.6272 4.17025 20.3704 4.57262 19.3186 5.31858C18.2668 6.06454 17.4715 7.11756 17.0417 8.33329H14.5833C12.9257 8.33329 11.336 8.99177 10.1639 10.1639C8.99182 11.336 8.33334 12.9257 8.33334 14.5833V39.5833C8.33334 41.2409 8.99182 42.8306 10.1639 44.0027C11.336 45.1748 12.9257 45.8333 14.5833 45.8333H35.4167C37.0743 45.8333 38.664 45.1748 39.8361 44.0027C41.0082 42.8306 41.6667 41.2409 41.6667 39.5833V14.5833C41.6667 12.9257 41.0082 11.336 39.8361 10.1639C38.664 8.99177 37.0743 8.33329 35.4167 8.33329ZM20.8333 10.4166C20.8333 9.86409 21.0528 9.33419 21.4435 8.94349C21.8342 8.55279 22.3641 8.33329 22.9167 8.33329H27.0833C27.6359 8.33329 28.1658 8.55279 28.5565 8.94349C28.9472 9.33419 29.1667 9.86409 29.1667 10.4166V12.5H20.8333V10.4166ZM37.5 39.5833C37.5 40.1358 37.2805 40.6657 36.8898 41.0564C36.4991 41.4471 35.9692 41.6666 35.4167 41.6666H14.5833C14.0308 41.6666 13.5009 41.4471 13.1102 41.0564C12.7195 40.6657 12.5 40.1358 12.5 39.5833V14.5833C12.5 14.0308 12.7195 13.5009 13.1102 13.1102C13.5009 12.7195 14.0308 12.5 14.5833 12.5H16.6667V14.5833C16.6667 15.1358 16.8862 15.6657 17.2769 16.0564C17.6676 16.4471 18.1975 16.6666 18.75 16.6666H31.25C31.8025 16.6666 32.3324 16.4471 32.7231 16.0564C33.1138 15.6657 33.3333 15.1358 33.3333 14.5833V12.5H35.4167C35.9692 12.5 36.4991 12.7195 36.8898 13.1102C37.2805 13.5009 37.5 14.0308 37.5 14.5833V39.5833ZM31.25 20.8333H18.75C18.1975 20.8333 17.6676 21.0528 17.2769 21.4435C16.8862 21.8342 16.6667 22.3641 16.6667 22.9166C16.6667 23.4692 16.8862 23.9991 17.2769 24.3898C17.6676 24.7805 18.1975 25 18.75 25H31.25C31.8025 25 32.3324 24.7805 32.7231 24.3898C33.1138 23.9991 33.3333 23.4692 33.3333 22.9166C33.3333 22.3641 33.1138 21.8342 32.7231 21.4435C32.3324 21.0528 31.8025 20.8333 31.25 20.8333Z" fill="#1F2937"/>
</svg>
