<svg width="50" height="50" viewBox="0 0 50 50" fill="none" xmlns="http://www.w3.org/2000/svg">
<path d="M25 4.16663C20.8796 4.16663 16.8517 5.38848 13.4256 7.67768C9.99963 9.96687 7.32937 13.2206 5.75254 17.0274C4.17571 20.8342 3.76314 25.0231 4.567 29.0643C5.37086 33.1056 7.35504 36.8178 10.2686 39.7313C13.1822 42.6449 16.8944 44.6291 20.9356 45.433C24.9769 46.2368 29.1658 45.8243 32.9726 44.2475C36.7794 42.6706 40.0331 40.0004 42.3223 36.5743C44.6115 33.1483 45.8334 29.1204 45.8334 25C45.8334 22.2641 45.2945 19.555 44.2475 17.0274C43.2005 14.4998 41.666 12.2031 39.7314 10.2686C37.7969 8.33401 35.5002 6.79944 32.9726 5.75247C30.445 4.7055 27.7359 4.16663 25 4.16663ZM25 41.6666C21.7037 41.6666 18.4813 40.6891 15.7405 38.8578C12.9997 37.0264 10.8635 34.4235 9.60204 31.378C8.34058 28.3326 8.01052 24.9815 8.65361 21.7485C9.2967 18.5154 10.884 15.5457 13.2149 13.2148C15.5458 10.884 18.5155 9.29663 21.7485 8.65354C24.9815 8.01045 28.3327 8.34051 31.3781 9.60197C34.4235 10.8634 37.0265 12.9996 38.8579 15.7405C40.6892 18.4813 41.6667 21.7036 41.6667 25C41.6667 29.4202 39.9107 33.6595 36.7851 36.7851C33.6595 39.9107 29.4203 41.6666 25 41.6666Z" fill="#F69893"/>
<path d="M25 12.5C23.0662 12.5 21.2115 13.2682 19.8441 14.6357C18.4766 16.0032 17.7084 17.8578 17.7084 19.7917C17.7084 20.3442 17.9279 20.8741 18.3186 21.2648C18.7093 21.6555 19.2392 21.875 19.7917 21.875C20.3442 21.875 20.8741 21.6555 21.2648 21.2648C21.6555 20.8741 21.875 20.3442 21.875 19.7917C21.875 19.1736 22.0583 18.5694 22.4017 18.0555C22.7451 17.5416 23.2331 17.1411 23.8042 16.9046C24.3752 16.668 25.0035 16.6062 25.6097 16.7267C26.2159 16.8473 26.7727 17.1449 27.2097 17.582C27.6468 18.019 27.9444 18.5758 28.065 19.182C28.1856 19.7882 28.1237 20.4166 27.8872 20.9876C27.6506 21.5586 27.2501 22.0466 26.7362 22.39C26.2223 22.7334 25.6181 22.9167 25 22.9167C24.4475 22.9167 23.9176 23.1362 23.5269 23.5269C23.1362 23.9176 22.9167 24.4475 22.9167 25V29.1667C22.9167 29.7192 23.1362 30.2491 23.5269 30.6398C23.9176 31.0305 24.4475 31.25 25 31.25C25.5526 31.25 26.0825 31.0305 26.4732 30.6398C26.8639 30.2491 27.0834 29.7192 27.0834 29.1667V26.75C28.7669 26.2584 30.216 25.1747 31.1636 23.6989C32.1111 22.223 32.4932 20.4543 32.2395 18.7189C31.9858 16.9835 31.1133 15.3983 29.7829 14.2554C28.4525 13.1126 26.7539 12.4891 25 12.5Z" fill="#F69893"/>
<path d="M25 37.4999C26.1506 37.4999 27.0834 36.5672 27.0834 35.4166C27.0834 34.266 26.1506 33.3333 25 33.3333C23.8494 33.3333 22.9167 34.266 22.9167 35.4166C22.9167 36.5672 23.8494 37.4999 25 37.4999Z" fill="#F69893"/>
</svg>
