<svg width="20" height="20" viewBox="0 0 50 50" fill="none" xmlns="http://www.w3.org/2000/svg">
<path fill-rule="evenodd" clip-rule="evenodd" d="M6.25 10.9375C6.25 10.5231 6.41462 10.1257 6.70765 9.83265C7.00067 9.53962 7.3981 9.375 7.8125 9.375H42.1875C42.6019 9.375 42.9993 9.53962 43.2924 9.83265C43.5854 10.1257 43.75 10.5231 43.75 10.9375C43.75 11.3519 43.5854 11.7493 43.2924 12.0424C42.9993 12.3354 42.6019 12.5 42.1875 12.5H7.8125C7.3981 12.5 7.00067 12.3354 6.70765 12.0424C6.41462 11.7493 6.25 11.3519 6.25 10.9375ZM21.875 20.3125C21.875 19.8981 22.0396 19.5007 22.3326 19.2076C22.6257 18.9146 23.0231 18.75 23.4375 18.75H42.1875C42.6019 18.75 42.9993 18.9146 43.2924 19.2076C43.5854 19.5007 43.75 19.8981 43.75 20.3125C43.75 20.7269 43.5854 21.1243 43.2924 21.4174C42.9993 21.7104 42.6019 21.875 42.1875 21.875H23.4375C23.0231 21.875 22.6257 21.7104 22.3326 21.4174C22.0396 21.1243 21.875 20.7269 21.875 20.3125ZM21.875 29.6875C21.875 29.2731 22.0396 28.8757 22.3326 28.5826C22.6257 28.2896 23.0231 28.125 23.4375 28.125H42.1875C42.6019 28.125 42.9993 28.2896 43.2924 28.5826C43.5854 28.8757 43.75 29.2731 43.75 29.6875C43.75 30.1019 43.5854 30.4993 43.2924 30.7924C42.9993 31.0854 42.6019 31.25 42.1875 31.25H23.4375C23.0231 31.25 22.6257 31.0854 22.3326 30.7924C22.0396 30.4993 21.875 30.1019 21.875 29.6875ZM6.25 39.0625C6.25 38.6481 6.41462 38.2507 6.70765 37.9576C7.00067 37.6646 7.3981 37.5 7.8125 37.5H42.1875C42.6019 37.5 42.9993 37.6646 43.2924 37.9576C43.5854 38.2507 43.75 38.6481 43.75 39.0625C43.75 39.4769 43.5854 39.8743 43.2924 40.1674C42.9993 40.4604 42.6019 40.625 42.1875 40.625H7.8125C7.3981 40.625 7.00067 40.4604 6.70765 40.1674C6.41462 39.8743 6.25 39.4769 6.25 39.0625Z" fill="#2B292E"/>
<path d="M11.6687 19.85C11.194 20.1179 10.7301 20.4046 10.2781 20.7094C9.88213 20.9771 9.5192 21.2908 9.19688 21.6438C8.87348 21.9828 8.60749 22.3723 8.40937 22.7969C8.22812 23.2 8.09688 23.7188 8.025 24.3531H8.90625C9.6625 24.3531 10.2531 24.5406 10.6813 24.9219C11.1188 25.2875 11.3375 25.8281 11.3375 26.55C11.3281 27.0879 11.1199 27.6033 10.7531 27.9969C10.3781 28.4344 9.85 28.6531 9.18125 28.6531C8.13125 28.6531 7.37812 28.3156 6.92813 27.6313C6.475 26.9344 6.25 26.025 6.25 24.9031C6.25 24.1094 6.42188 23.3875 6.7625 22.7406C7.10625 22.0844 7.51875 21.4969 8.00625 20.9844C8.50625 20.4594 9.0375 20.0156 9.6 19.6469C10.1625 19.2813 10.6312 18.9813 11.0094 18.75L11.6687 19.85ZM18.4437 19.85C17.969 20.1179 17.5051 20.4046 17.0531 20.7094C16.6571 20.9771 16.2942 21.2908 15.9719 21.6438C15.6188 22.0188 15.35 22.4125 15.1688 22.8156C14.972 23.3076 14.8478 23.8255 14.8 24.3531H15.6813C16.4375 24.3531 17.0281 24.5406 17.4563 24.9219C17.8938 25.2875 18.1125 25.8281 18.1125 26.55C18.1031 27.0879 17.8949 27.6033 17.5281 27.9969C17.1531 28.4344 16.625 28.6531 15.9531 28.6531C14.9062 28.6531 14.1531 28.3156 13.7031 27.6313C13.25 26.9344 13.025 26.025 13.025 24.9031C13.025 24.1094 13.1969 23.3875 13.5375 22.7406C13.8812 22.0844 14.2937 21.4969 14.7812 20.9844C15.2812 20.4594 15.8125 20.0156 16.375 19.6469C16.9375 19.2813 17.4062 18.9813 17.7844 18.75L18.4437 19.85Z" fill="#2B292E"/>
</svg>
