<svg width="50" height="50" viewBox="0 0 50 50" fill="none" xmlns="http://www.w3.org/2000/svg">
<path fill-rule="evenodd" clip-rule="evenodd" d="M14.5834 29.1666C15.6884 29.1666 16.7482 28.7276 17.5297 27.9462C18.3111 27.1648 18.75 26.105 18.75 25C18.75 23.8949 18.3111 22.8351 17.5297 22.0537C16.7482 21.2723 15.6884 20.8333 14.5834 20.8333C13.4783 20.8333 12.4185 21.2723 11.6371 22.0537C10.8557 22.8351 10.4167 23.8949 10.4167 25C10.4167 26.105 10.8557 27.1648 11.6371 27.9462C12.4185 28.7276 13.4783 29.1666 14.5834 29.1666ZM21.8021 20.8333C20.974 19.4008 19.7384 18.2471 18.2525 17.5191C16.7667 16.791 15.0978 16.5215 13.4583 16.7449C11.8188 16.9683 10.2829 17.6745 9.04601 18.7735C7.80911 19.8726 6.92721 21.3148 6.51254 22.9166H4.16671C3.61417 22.9166 3.08427 23.1361 2.69357 23.5268C2.30287 23.9175 2.08337 24.4474 2.08337 25C2.08337 25.5525 2.30287 26.0824 2.69357 26.4731C3.08427 26.8638 3.61417 27.0833 4.16671 27.0833H6.51254C7.02448 29.0426 8.23205 30.7487 9.90978 31.8829C11.5875 33.0171 13.6207 33.5018 15.6297 33.2467C17.6387 32.9916 19.4861 32.0139 20.8271 30.4964C22.168 28.9788 22.9108 27.0251 22.9167 25H27.0834C27.0814 27.0297 27.8202 28.9903 29.1612 30.514C30.5023 32.0376 32.3533 33.0194 34.3668 33.2751C36.3803 33.5308 38.418 33.0429 40.0973 31.9029C41.7766 30.7628 42.9821 29.0491 43.4875 27.0833H45.8334C46.3859 27.0833 46.9158 26.8638 47.3065 26.4731C47.6972 26.0824 47.9167 25.5525 47.9167 25C47.9167 24.4474 47.6972 23.9175 47.3065 23.5268C46.9158 23.1361 46.3859 22.9166 45.8334 22.9166H43.4875C43.0729 21.3148 42.191 19.8726 40.9541 18.7735C39.7172 17.6745 38.1812 16.9683 36.5418 16.7449C34.9023 16.5215 33.2334 16.791 31.7475 17.5191C30.2617 18.2471 29.0261 19.4008 28.198 20.8333H21.8021ZM31.25 25C31.25 26.105 31.689 27.1648 32.4704 27.9462C33.2518 28.7276 34.3116 29.1666 35.4167 29.1666C36.5218 29.1666 37.5816 28.7276 38.363 27.9462C39.1444 27.1648 39.5834 26.105 39.5834 25C39.5834 23.8949 39.1444 22.8351 38.363 22.0537C37.5816 21.2723 36.5218 20.8333 35.4167 20.8333C34.3116 20.8333 33.2518 21.2723 32.4704 22.0537C31.689 22.8351 31.25 23.8949 31.25 25Z" fill="#2B292E"/>
</svg>
