<svg width="50" height="50" viewBox="0 0 50 50" fill="none" xmlns="http://www.w3.org/2000/svg">
<path d="M26.6521 4.77709C27.0428 4.38652 27.5726 4.16711 28.125 4.16711C28.6774 4.16711 29.2072 4.38652 29.5979 4.77709L35.8479 11.0271C36.2385 11.4178 36.4579 11.9476 36.4579 12.5C36.4579 13.0524 36.2385 13.5822 35.8479 13.9729L29.5979 20.2229C29.205 20.6024 28.6788 20.8124 28.1325 20.8077C27.5863 20.8029 27.0637 20.5838 26.6775 20.1975C26.2912 19.8113 26.0721 19.2887 26.0674 18.7425C26.0626 18.1963 26.2726 17.67 26.6521 17.2771L29.3458 14.5833H26.0417C18.65 14.5833 12.5 20.7333 12.5 28.125C12.5 35.5167 18.65 41.6667 26.0417 41.6667C33.4333 41.6667 39.5833 35.5167 39.5833 28.125C39.5833 27.5725 39.8028 27.0426 40.1935 26.6519C40.5842 26.2612 41.1141 26.0417 41.6667 26.0417C42.2192 26.0417 42.7491 26.2612 43.1398 26.6519C43.5305 27.0426 43.75 27.5725 43.75 28.125C43.75 37.8167 35.7333 45.8333 26.0417 45.8333C16.35 45.8333 8.33334 37.8167 8.33334 28.125C8.33334 18.4333 16.35 10.4167 26.0417 10.4167H29.3458L26.6521 7.72292C26.2615 7.33224 26.0421 6.80243 26.0421 6.25C26.0421 5.69758 26.2615 5.16777 26.6521 4.77709Z" fill="#2B292E"/>
</svg>
