<svg width="50" height="50" viewBox="0 0 50 50" fill="none" xmlns="http://www.w3.org/2000/svg">
<path d="M6.64062 18.75H9.375C9.58984 18.75 9.76562 18.5742 9.76562 18.3594V9.76562H18.3594C18.5742 9.76562 18.75 9.58984 18.75 9.375V6.64062C18.75 6.42578 18.5742 6.25 18.3594 6.25H9.57031C7.73438 6.25 6.25 7.73438 6.25 9.57031V18.3594C6.25 18.5742 6.42578 18.75 6.64062 18.75ZM31.6406 9.76562H40.2344V18.3594C40.2344 18.5742 40.4102 18.75 40.625 18.75H43.3594C43.5742 18.75 43.75 18.5742 43.75 18.3594V9.57031C43.75 7.73438 42.2656 6.25 40.4297 6.25H31.6406C31.4258 6.25 31.25 6.42578 31.25 6.64062V9.375C31.25 9.58984 31.4258 9.76562 31.6406 9.76562ZM18.3594 40.2344H9.76562V31.6406C9.76562 31.4258 9.58984 31.25 9.375 31.25H6.64062C6.42578 31.25 6.25 31.4258 6.25 31.6406V40.4297C6.25 42.2656 7.73438 43.75 9.57031 43.75H18.3594C18.5742 43.75 18.75 43.5742 18.75 43.3594V40.625C18.75 40.4102 18.5742 40.2344 18.3594 40.2344ZM43.3594 31.25H40.625C40.4102 31.25 40.2344 31.4258 40.2344 31.6406V40.2344H31.6406C31.4258 40.2344 31.25 40.4102 31.25 40.625V43.3594C31.25 43.5742 31.4258 43.75 31.6406 43.75H40.4297C42.2656 43.75 43.75 42.2656 43.75 40.4297V31.6406C43.75 31.4258 43.5742 31.25 43.3594 31.25ZM44.1406 23.2422H5.85938C5.64453 23.2422 5.46875 23.418 5.46875 23.6328V26.3672C5.46875 26.582 5.64453 26.7578 5.85938 26.7578H44.1406C44.3555 26.7578 44.5312 26.582 44.5312 26.3672V23.6328C44.5312 23.418 44.3555 23.2422 44.1406 23.2422Z" fill="#2B292E"/>
</svg>
