<?xml version="1.0" encoding="utf-8"?>
<!-- Generator: Adobe Illustrator 24.1.2, SVG Export Plug-In . SVG Version: 6.00 Build 0)  -->
<svg version="1.1" id="图层_1" xmlns="http://www.w3.org/2000/svg" xmlns:xlink="http://www.w3.org/1999/xlink" x="0px" y="0px"
	 viewBox="0 0 50 50" style="enable-background:new 0 0 50 50;" xml:space="preserve">
<style type="text/css">
	.st0{fill-rule:evenodd;clip-rule:evenodd;}
</style>
<path class="st0" d="M33.3,21.7c0,1.5-0.3,3-0.9,4.5c-0.6,1.4-1.4,2.7-2.5,3.8c-1.1,1.1-2.4,1.9-3.8,2.5c-1.4,0.6-2.9,0.9-4.5,0.9
	c-1.5,0-3-0.3-4.5-0.9c-1.4-0.6-2.7-1.4-3.8-2.5c-1.1-1.1-1.9-2.4-2.5-3.8c-0.6-1.4-0.9-2.9-0.9-4.5c0-3.1,1.2-6.1,3.4-8.2
	c2.2-2.2,5.2-3.4,8.2-3.4s6.1,1.2,8.2,3.4C32.1,15.6,33.3,18.6,33.3,21.7z M31,33.4c-3,2.4-6.8,3.5-10.6,3.2
	c-3.8-0.3-7.4-2.1-9.9-4.9c-2.6-2.9-3.9-6.6-3.8-10.4c0.1-3.8,1.7-7.5,4.4-10.2c2.7-2.7,6.4-4.3,10.2-4.4c3.8-0.1,7.6,1.3,10.4,3.8
	c2.9,2.6,4.6,6.1,4.9,9.9c0.3,3.8-0.8,7.6-3.2,10.6l9.5,9.5c0.2,0.2,0.3,0.3,0.4,0.5c0.1,0.2,0.1,0.4,0.1,0.6c0,0.2,0,0.4-0.1,0.6
	c-0.1,0.2-0.2,0.4-0.4,0.5c-0.2,0.2-0.3,0.3-0.5,0.4c-0.2,0.1-0.4,0.1-0.6,0.1c-0.2,0-0.4,0-0.6-0.1c-0.2-0.1-0.4-0.2-0.5-0.4
	L31,33.4L31,33.4z"/>
</svg>
