<svg width="50" height="50" viewBox="0 0 50 50" fill="none" xmlns="http://www.w3.org/2000/svg">
<path d="M12.5 29.6875C15.0888 29.6875 17.1875 27.5888 17.1875 25C17.1875 22.4112 15.0888 20.3125 12.5 20.3125C9.91117 20.3125 7.8125 22.4112 7.8125 25C7.8125 27.5888 9.91117 29.6875 12.5 29.6875Z" stroke="#2B292E" stroke-width="3.125" stroke-linecap="round" stroke-linejoin="round"/>
<path d="M37.5 15.625C40.0888 15.625 42.1875 13.5263 42.1875 10.9375C42.1875 8.34867 40.0888 6.25 37.5 6.25C34.9112 6.25 32.8125 8.34867 32.8125 10.9375C32.8125 13.5263 34.9112 15.625 37.5 15.625Z" stroke="#2B292E" stroke-width="3.125" stroke-linecap="round" stroke-linejoin="round"/>
<path d="M37.5 43.75C40.0888 43.75 42.1875 41.6513 42.1875 39.0625C42.1875 36.4737 40.0888 34.375 37.5 34.375C34.9112 34.375 32.8125 36.4737 32.8125 39.0625C32.8125 41.6513 34.9112 43.75 37.5 43.75Z" stroke="#2B292E" stroke-width="3.125" stroke-linecap="round" stroke-linejoin="round"/>
<path d="M16.585 27.2979L33.415 36.7646" stroke="#2B292E" stroke-width="3.125" stroke-linecap="round" stroke-linejoin="round"/>
<path d="M33.415 13.2354L16.585 22.7021" stroke="#2B292E" stroke-width="3.125" stroke-linecap="round" stroke-linejoin="round"/>
</svg>
