<svg width="50" height="50" viewBox="0 0 50 50" fill="none" xmlns="http://www.w3.org/2000/svg">
<path d="M40.9375 18.8333L30.8542 17.9583L26.9167 8.6875C26.2083 7 23.7917 7 23.0833 8.6875L19.1458 17.9792L9.08333 18.8333C7.25 18.9792 6.5 21.2708 7.89583 22.4792L15.5417 29.1042L13.25 38.9375C12.8333 40.7292 14.7708 42.1458 16.3542 41.1875L25 35.9792L33.6458 41.2083C35.2292 42.1667 37.1667 40.75 36.75 38.9583L34.4583 29.1042L42.1042 22.4792C43.5 21.2708 42.7708 18.9792 40.9375 18.8333ZM25 32.0833L17.1667 36.8125L19.25 27.8958L12.3333 21.8958L21.4583 21.1042L25 12.7083L28.5625 21.125L37.6875 21.9167L30.7708 27.9167L32.8542 36.8333L25 32.0833Z" fill="#2B292E"/>
</svg>
