<svg width="50" height="50" viewBox="0 0 50 50" fill="none" xmlns="http://www.w3.org/2000/svg">
<path fill-rule="evenodd" clip-rule="evenodd" d="M4.16667 16.6666V33.3333C4.16667 33.8858 4.38616 34.4157 4.77686 34.8064C5.16756 35.1971 5.69747 35.4166 6.25 35.4166H34.625C34.9259 35.4166 35.2233 35.3515 35.4966 35.2256C35.7699 35.0997 36.0127 34.9161 36.2083 34.6875L43.35 26.3541C43.6728 25.9768 43.8501 25.4965 43.8501 25C43.8501 24.5034 43.6728 24.0232 43.35 23.6458L36.2083 15.3125C36.0127 15.0838 35.7699 14.9002 35.4966 14.7743C35.2233 14.6484 34.9259 14.5833 34.625 14.5833H6.25C5.69747 14.5833 5.16756 14.8028 4.77686 15.1935C4.38616 15.5842 4.16667 16.1141 4.16667 16.6666ZM0 16.6666V33.3333C0 34.9909 0.65848 36.5806 1.83058 37.7527C3.00268 38.9248 4.5924 39.5833 6.25 39.5833H34.625C35.5267 39.5833 36.4178 39.3881 37.237 39.0112C38.0562 38.6344 38.7841 38.0847 39.3708 37.4L46.5125 29.0666C47.483 27.934 48.0165 26.4916 48.0165 25C48.0165 23.5084 47.483 22.066 46.5125 20.9333L39.3708 12.6C38.7841 11.9152 38.0562 11.3655 37.237 10.9887C36.4178 10.6118 35.5267 10.4167 34.625 10.4166H6.25C4.5924 10.4166 3.00268 11.0751 1.83058 12.2472C0.65848 13.4193 0 15.009 0 16.6666H0Z" fill="#2B292E"/>
<path fill-rule="evenodd" clip-rule="evenodd" d="M31.25 27.0833C31.8025 27.0833 32.3324 26.8638 32.7231 26.4731C33.1138 26.0824 33.3333 25.5525 33.3333 25C33.3333 24.4475 33.1138 23.9176 32.7231 23.5269C32.3324 23.1362 31.8025 22.9167 31.25 22.9167C30.6975 22.9167 30.1676 23.1362 29.7769 23.5269C29.3862 23.9176 29.1667 24.4475 29.1667 25C29.1667 25.5525 29.3862 26.0824 29.7769 26.4731C30.1676 26.8638 30.6975 27.0833 31.25 27.0833ZM31.25 31.25C32.9076 31.25 34.4973 30.5915 35.6694 29.4194C36.8415 28.2473 37.5 26.6576 37.5 25C37.5 23.3424 36.8415 21.7527 35.6694 20.5806C34.4973 19.4085 32.9076 18.75 31.25 18.75C29.5924 18.75 28.0027 19.4085 26.8306 20.5806C25.6585 21.7527 25 23.3424 25 25C25 26.6576 25.6585 28.2473 26.8306 29.4194C28.0027 30.5915 29.5924 31.25 31.25 31.25Z" fill="#2B292E"/>
</svg>
