<svg width="50" height="50" viewBox="0 0 50 50" fill="none" xmlns="http://www.w3.org/2000/svg">
<path d="M25 28.125C25.8288 28.125 26.6237 27.7958 27.2097 27.2097C27.7958 26.6237 28.125 25.8288 28.125 25C28.125 24.1712 27.7958 23.3763 27.2097 22.7903C26.6237 22.2042 25.8288 21.875 25 21.875C24.1712 21.875 23.3763 22.2042 22.7903 22.7903C22.2042 23.3763 21.875 24.1712 21.875 25C21.875 25.8288 22.2042 26.6237 22.7903 27.2097C23.3763 27.7958 24.1712 28.125 25 28.125ZM14.0625 25C14.0625 22.0992 15.2148 19.3172 17.266 17.266C19.3172 15.2148 22.0992 14.0625 25 14.0625C27.9008 14.0625 30.6828 15.2148 32.734 17.266C34.7852 19.3172 35.9375 22.0992 35.9375 25C35.9375 27.9008 34.7852 30.6828 32.734 32.734C30.6828 34.7852 27.9008 35.9375 25 35.9375C22.0992 35.9375 19.3172 34.7852 17.266 32.734C15.2148 30.6828 14.0625 27.9008 14.0625 25ZM25 17.1875C22.928 17.1875 20.9409 18.0106 19.4757 19.4757C18.0106 20.9409 17.1875 22.928 17.1875 25C17.1875 27.072 18.0106 29.0591 19.4757 30.5243C20.9409 31.9894 22.928 32.8125 25 32.8125C27.072 32.8125 29.0591 31.9894 30.5243 30.5243C31.9894 29.0591 32.8125 27.072 32.8125 25C32.8125 22.928 31.9894 20.9409 30.5243 19.4757C29.0591 18.0106 27.072 17.1875 25 17.1875ZM6.25 25.0016C6.25 14.6453 14.6453 6.25 25.0016 6.25C35.3578 6.25 43.7547 14.6453 43.7547 25.0016C43.7547 35.3578 35.3594 43.7547 25.0016 43.7547C14.6453 43.7547 6.25 35.3594 6.25 25V25.0016ZM25.0016 9.375C16.3719 9.375 9.375 16.3719 9.375 25.0016C9.375 33.6328 16.3719 40.6297 25.0016 40.6297C33.6328 40.6297 40.6297 33.6328 40.6297 25.0016C40.6297 16.3719 33.6328 9.375 25 9.375H25.0016Z" fill="black"/>
</svg>
