<svg width="50" height="50" viewBox="0 0 50 50" fill="none" xmlns="http://www.w3.org/2000/svg">
<path d="M41.9189 37.2852C40.9979 35.1034 39.6612 33.1216 37.9834 31.4502C36.3107 29.774 34.3292 28.4375 32.1484 27.5146C32.1289 27.5049 32.1094 27.5 32.0898 27.4902C35.1318 25.293 37.1094 21.7139 37.1094 17.6758C37.1094 10.9863 31.6895 5.56641 25 5.56641C18.3105 5.56641 12.8906 10.9863 12.8906 17.6758C12.8906 21.7139 14.8682 25.293 17.9102 27.4951C17.8906 27.5049 17.8711 27.5098 17.8516 27.5195C15.6641 28.4424 13.7012 29.7656 12.0166 31.4551C10.3404 33.1278 9.00393 35.1092 8.08105 37.29C7.17442 39.4251 6.68546 41.7141 6.64063 44.0332C6.63932 44.0853 6.64846 44.1372 6.66751 44.1857C6.68656 44.2342 6.71512 44.2784 6.75153 44.3158C6.78793 44.3531 6.83143 44.3827 6.87947 44.403C6.92751 44.4232 6.97912 44.4336 7.03125 44.4336H9.96094C10.1758 44.4336 10.3467 44.2627 10.3516 44.0527C10.4492 40.2832 11.9629 36.7529 14.6387 34.0772C17.4072 31.3086 21.084 29.7852 25 29.7852C28.916 29.7852 32.5928 31.3086 35.3613 34.0772C38.0371 36.7529 39.5508 40.2832 39.6484 44.0527C39.6533 44.2676 39.8242 44.4336 40.0391 44.4336H42.9688C43.0209 44.4336 43.0725 44.4232 43.1205 44.403C43.1686 44.3827 43.2121 44.3531 43.2485 44.3158C43.2849 44.2784 43.3134 44.2342 43.3325 44.1857C43.3515 44.1372 43.3607 44.0853 43.3594 44.0332C43.3105 41.6992 42.8271 39.4287 41.9189 37.2852ZM25 26.0742C22.7588 26.0742 20.6494 25.2002 19.0625 23.6133C17.4756 22.0264 16.6016 19.917 16.6016 17.6758C16.6016 15.4346 17.4756 13.3252 19.0625 11.7383C20.6494 10.1514 22.7588 9.27734 25 9.27734C27.2412 9.27734 29.3506 10.1514 30.9375 11.7383C32.5244 13.3252 33.3984 15.4346 33.3984 17.6758C33.3984 19.917 32.5244 22.0264 30.9375 23.6133C29.3506 25.2002 27.2412 26.0742 25 26.0742Z" fill="#2B292E"/>
</svg>
