<svg width="705" height="180" viewBox="0 0 705 180" fill="none" xmlns="http://www.w3.org/2000/svg">
<path d="M17.1428 0H126.365C126.4 0 126.428 0.0284967 126.428 0.0636492V0.0636492C126.428 3.57889 123.579 6.42856 120.064 6.42856H17.1428V0Z" fill="#F69893"/>
<path d="M17.1428 27.8572H120.064C123.579 27.8572 126.428 30.7068 126.428 34.2221V34.2221C126.428 34.2572 126.4 34.2857 126.365 34.2857H17.1428V27.8572Z" fill="#F69893"/>
<circle cx="17.1433" cy="17.1428" r="17.1428" fill="#F69893"/>
<circle cx="17.143" cy="17.1428" r="10.7143" fill="#ECECEC"/>
<path fill-rule="evenodd" clip-rule="evenodd" d="M120 6.42853H17.071V27.8571H120C119.999 27.8571 117.926 23.0601 117.926 17.1428C117.926 11.2255 119.999 6.42854 120 6.42853Z" fill="#ECECEC"/>
<path d="M17.1428 145.714H126.365C126.4 145.714 126.428 145.743 126.428 145.778V145.778C126.428 149.293 123.579 152.143 120.064 152.143H17.1428V145.714Z" fill="#F69893"/>
<path d="M17.1428 173.571H120.064C123.579 173.571 126.428 176.421 126.428 179.936V179.936C126.428 179.972 126.4 180 126.365 180H17.1428V173.571Z" fill="#F69893"/>
<circle cx="17.1428" cy="162.857" r="17.1428" fill="#F69893"/>
<circle cx="17.143" cy="162.857" r="10.7143" fill="#ECECEC"/>
<path fill-rule="evenodd" clip-rule="evenodd" d="M119.999 173.571L120 173.571H17.071V152.143H119.999C119.987 152.173 117.926 156.958 117.926 162.857C117.926 168.774 119.999 173.571 119.999 173.571Z" fill="#ECECEC"/>
<circle cx="111" cy="62.1428" r="27.8571" fill="#70C4FD"/>
<circle cx="111" cy="62.1428" r="21.4286" fill="#ECECEC"/>
<path fill-rule="evenodd" clip-rule="evenodd" d="M6.85708 83.5713C6.85708 83.5713 10.9411 73.9774 10.9411 62.1428C10.9411 50.3081 6.85708 40.7142 6.85708 40.7142H110.999V83.5713H6.85645C6.85666 83.5713 6.85687 83.5713 6.85708 83.5713Z" fill="#ECECEC"/>
<path d="M0.000244141 34.3493C0.000244141 34.3141 0.0287408 34.2856 0.0638933 34.2856H110.885V40.7142H6.36515C2.84991 40.7142 0.000244141 37.8645 0.000244141 34.3493V34.3493Z" fill="#70C4FD"/>
<path d="M0 89.9364C0 86.4211 2.84967 83.5715 6.36491 83.5715H110.885V90H0.0636539C0.0285015 90 0 89.9715 0 89.9364V89.9364Z" fill="#70C4FD"/>
<circle cx="111" cy="117.857" r="27.8571" fill="#19EBAC"/>
<circle cx="111" cy="117.857" r="21.4286" fill="#ECECEC"/>
<path fill-rule="evenodd" clip-rule="evenodd" d="M6.85708 139.285C6.85708 139.285 10.9411 129.692 10.9411 117.857C10.9411 106.033 6.8646 96.446 6.85709 96.4283H111V139.285H6.85693V139.285C6.85698 139.285 6.85703 139.285 6.85708 139.285Z" fill="#ECECEC"/>
<path d="M0.000244141 90.0636C0.000244141 90.0284 0.0287408 89.9999 0.0638933 89.9999H110.885V96.4285H6.36515C2.84991 96.4285 0.000244141 93.5788 0.000244141 90.0636V90.0636Z" fill="#19EBAC"/>
<path d="M0 145.651C0 142.135 2.84967 139.286 6.36491 139.286H110.885V145.714H0.0636539C0.0285015 145.714 0 145.686 0 145.651V145.651Z" fill="#19EBAC"/>
<path d="M171.577 140H197.497C217.177 140 230.137 131.36 230.137 114.44C230.137 102.44 222.697 95.36 211.417 93.44V92.84C220.177 90.2 224.857 82.76 224.857 73.76C224.857 59 213.337 52.52 195.697 52.52H171.577V140ZM178.777 90.68V58.4H194.137C209.617 58.4 217.657 62.72 217.657 74.6C217.657 84.56 210.697 90.68 193.417 90.68H178.777ZM178.777 134V96.44H195.817C213.217 96.44 223.057 102.2 223.057 114.44C223.057 128 212.737 134 195.817 134H178.777Z" fill="#F69893"/>
<path d="M271.489 141.56C286.969 141.56 300.409 129.32 300.409 108.08C300.409 86.72 286.969 74.36 271.489 74.36C256.009 74.36 242.569 86.72 242.569 108.08C242.569 129.32 256.009 141.56 271.489 141.56ZM271.489 135.56C259.009 135.56 249.889 124.4 249.889 108.08C249.889 91.76 259.009 80.48 271.489 80.48C283.969 80.48 293.209 91.76 293.209 108.08C293.209 124.4 283.969 135.56 271.489 135.56ZM342.739 141.56C358.219 141.56 371.659 129.32 371.659 108.08C371.659 86.72 358.219 74.36 342.739 74.36C327.259 74.36 313.819 86.72 313.819 108.08C313.819 129.32 327.259 141.56 342.739 141.56ZM342.739 135.56C330.259 135.56 321.139 124.4 321.139 108.08C321.139 91.76 330.259 80.48 342.739 80.48C355.219 80.48 364.459 91.76 364.459 108.08C364.459 124.4 355.219 135.56 342.739 135.56ZM390.349 140H397.309V122.72L411.109 106.4L431.749 140H439.429L415.189 101.36L436.069 76.04H428.149L397.549 113.72H397.309V44.6H390.349V140ZM561.541 141.56C569.701 141.56 577.381 137.12 583.861 131.84H584.101L584.821 140H590.701V99.44C590.701 85.28 585.301 74.36 570.061 74.36C559.621 74.36 550.741 79.4 545.821 82.76L548.941 87.8C553.381 84.44 560.701 80.48 569.101 80.48C581.221 80.48 583.981 90.32 583.741 99.8C555.541 103.04 542.941 109.76 542.941 123.92C542.941 135.8 551.221 141.56 561.541 141.56ZM562.981 135.68C555.901 135.68 549.901 132.32 549.901 123.56C549.901 113.72 558.541 107.84 583.741 104.96V125.72C576.181 132.32 570.061 135.68 562.981 135.68ZM629.482 141.56C632.362 141.56 636.442 140.48 640.162 139.16L638.482 133.76C636.202 134.72 633.082 135.56 630.682 135.56C622.162 135.56 620.002 130.28 620.002 122.24V81.92H638.362V76.04H620.002V57.56H614.122L613.282 76.04L603.082 76.64V81.92H613.042V121.76C613.042 133.64 616.882 141.56 629.482 141.56ZM676.626 141.56C685.866 141.56 691.866 138.56 697.026 135.32L694.386 130.16C689.586 133.52 684.186 135.68 677.346 135.68C663.546 135.68 654.306 124.76 653.946 109.16H699.306C699.546 107.6 699.666 105.92 699.666 104.12C699.666 85.4 690.426 74.36 674.946 74.36C660.426 74.36 646.866 87.32 646.866 108.08C646.866 129.08 660.186 141.56 676.626 141.56ZM653.946 103.64C655.266 89 664.626 80.36 675.066 80.36C686.226 80.36 693.306 88.16 693.306 103.64H653.946Z" fill="black"/>
<path d="M453.647 140H460.247V84.56C460.247 77.36 459.767 67.76 459.407 60.44H459.887L466.727 80L485.207 130.64H490.967L509.327 80L516.167 60.44H516.647C516.287 67.76 515.807 77.36 515.807 84.56V140H522.647V52.52H513.047L495.047 102.8C492.887 109.16 490.847 115.64 488.567 122H488.087L481.247 102.8L463.247 52.52H453.647V140Z" fill="#70C4FD"/>
</svg>
