<svg width="320" height="368" viewBox="0 0 320 368" fill="none" xmlns="http://www.w3.org/2000/svg">
<path d="M31.5769 0H232.763C232.828 0 232.88 0.0524907 232.88 0.117241V0.117241C232.88 6.59229 227.631 11.8414 221.156 11.8414H31.5769V0Z" fill="#F69893"/>
<path d="M31.5769 51.3126H221.156C227.631 51.3126 232.88 56.5617 232.88 63.0367V63.0367C232.88 63.1015 232.828 63.154 232.763 63.154H31.5769V51.3126Z" fill="#F69893"/>
<circle cx="31.577" cy="31.577" r="31.577" fill="#F69893"/>
<circle cx="31.577" cy="31.5769" r="19.7356" fill="#FCA5A5"/>
<path fill-rule="evenodd" clip-rule="evenodd" d="M217.219 31.5769C217.219 42.4766 221.039 51.3125 221.039 51.3125L31.4454 51.3125V11.8413L221.039 11.8413C221.039 11.8413 217.219 20.6772 217.219 31.5769Z" fill="#FCA5A5"/>
<path d="M31.5769 268.404H232.763C232.828 268.404 232.88 268.457 232.88 268.521V268.521C232.88 274.996 227.631 280.245 221.156 280.245H31.5769V268.404Z" fill="#F69893"/>
<path d="M31.5769 319.717H221.156C227.631 319.717 232.88 324.966 232.88 331.441V331.441C232.88 331.506 232.828 331.558 232.763 331.558H31.5769V319.717Z" fill="#F69893"/>
<circle cx="31.577" cy="299.982" r="31.577" fill="#F69893"/>
<circle cx="31.577" cy="299.981" r="19.7356" fill="#FCA5A5"/>
<path fill-rule="evenodd" clip-rule="evenodd" d="M217.219 299.981C217.219 310.881 221.039 319.717 221.039 319.717L31.4454 319.717V280.245L221.039 280.245C221.039 280.245 217.219 289.081 217.219 299.981Z" fill="#FCA5A5"/>
<circle cx="204.461" cy="114.466" r="51.3126" fill="#70C4FD"/>
<circle cx="204.461" cy="114.467" r="39.4712" fill="#93C5FD"/>
<path fill-rule="evenodd" clip-rule="evenodd" d="M12.6307 153.938C12.6307 153.938 20.1535 136.266 20.1535 114.467C20.1535 92.6881 12.6452 75.0292 12.6308 74.9954H204.461V153.938L12.6307 153.938Z" fill="#93C5FD"/>
<path d="M0 63.2712C0 63.2064 0.0524907 63.1539 0.117241 63.1539H204.25V74.9953H11.7241C5.24908 74.9953 0 69.7462 0 63.2712V63.2712Z" fill="#70C4FD"/>
<path d="M0 165.662C0 159.187 5.24907 153.938 11.7241 153.938H204.25V165.779H0.11725C0.0524994 165.779 0 165.726 0 165.662V165.662Z" fill="#70C4FD"/>
<circle cx="204.461" cy="217.092" r="51.3126" fill="#19EBAC"/>
<circle cx="204.461" cy="217.092" r="39.4712" fill="#6EE7B7"/>
<path fill-rule="evenodd" clip-rule="evenodd" d="M12.6307 256.563C12.6307 256.563 20.1535 238.891 20.1535 217.092C20.1535 195.313 12.6452 177.654 12.6308 177.62H204.461V256.563L12.6307 256.563Z" fill="#6EE7B7"/>
<path d="M0 165.896C0 165.832 0.0524907 165.779 0.117241 165.779H204.25V177.62H11.7241C5.24908 177.62 0 172.371 0 165.896V165.896Z" fill="#19EBAC"/>
<path d="M0 268.287C0 261.812 5.24907 256.563 11.7241 256.563H204.25V268.404H0.11725C0.0524994 268.404 0 268.352 0 268.287V268.287Z" fill="#19EBAC"/>
<ellipse cx="256.057" cy="346.595" rx="63.9433" ry="21.3144" fill="#F69893"/>
<rect x="192.113" y="289.473" width="127.887" height="57.1227" fill="#F69893"/>
<rect x="192.113" y="232.35" width="127.887" height="57.1227" fill="#19EBAC"/>
<ellipse cx="256.057" cy="289.473" rx="63.9433" ry="21.3144" fill="#19EBAC"/>
<ellipse cx="256.057" cy="232.35" rx="63.9433" ry="21.3144" fill="#70C4FD"/>
<rect x="192.113" y="175.228" width="127.887" height="57.1227" fill="#70C4FD"/>
<ellipse cx="256.057" cy="175.228" rx="63.9433" ry="21.3144" fill="#93C5FD"/>
</svg>
